<?xml version="1.0" encoding="iso-8859-1"?>
<!-- Generator: Adobe Illustrator 29.3.0, SVG Export Plug-In . SVG Version: 9.03 Build 55982)  -->
<svg version="1.1" id="Layer_1" xmlns="http://www.w3.org/2000/svg" xmlns:xlink="http://www.w3.org/1999/xlink" x="0px" y="0px"
	 viewBox="0 0 134.714 35.671" style="enable-background:new 0 0 134.714 35.671;" xml:space="preserve">
<rect width="134.714" height="35.671"/>
<path style="fill:#FFFFFF;" d="M48.168,13.096h0.814l-2.355-6.504h-0.802l-2.355,6.504h0.815l0.645-1.842h2.594L48.168,13.096z
	 M45.174,10.555l1.027-2.934h0.05l1.027,2.934H45.174z M49.25,6.592l1.904,5.475h0.076l1.905-5.475h0.814l-2.355,6.504H50.79
	l-2.355-6.504H49.25z M54.553,13.096V6.592h3.872V7.29H55.33v2.198h2.894v0.698H55.33v2.211h3.145v0.698H54.553z M60.208,6.592
	v6.504h-0.777V6.592H60.208z M65.963,13.096l-1.45-2.683c0.091-0.032,0.176-0.068,0.256-0.11c0.319-0.168,0.556-0.401,0.711-0.697
	c0.154-0.296,0.231-0.636,0.231-1.019c0-0.383-0.077-0.725-0.231-1.026c-0.155-0.301-0.393-0.538-0.715-0.71
	c-0.321-0.172-0.733-0.259-1.234-0.259h-2.168v6.504h0.777v-2.541h1.403c0.056,0,0.108-0.005,0.162-0.007l1.355,2.548H65.963z
	 M62.142,7.29h1.365c0.347,0,0.625,0.054,0.836,0.161c0.211,0.107,0.365,0.258,0.461,0.453c0.096,0.195,0.144,0.422,0.144,0.683
	c0,0.26-0.048,0.484-0.143,0.672c-0.094,0.187-0.247,0.332-0.457,0.433c-0.21,0.101-0.486,0.152-0.828,0.152h-1.378V7.29z
	 M72.019,9.844c0,0.686-0.122,1.279-0.367,1.779s-0.58,0.885-1.005,1.156c-0.426,0.271-0.913,0.407-1.46,0.407
	c-0.547,0-1.033-0.136-1.46-0.407c-0.426-0.271-0.761-0.656-1.005-1.156s-0.367-1.093-0.367-1.779c0-0.686,0.122-1.278,0.367-1.778
	s0.58-0.885,1.005-1.156c0.426-0.271,0.913-0.406,1.46-0.406c0.548,0,1.034,0.135,1.46,0.406c0.426,0.271,0.761,0.657,1.005,1.156
	S72.019,9.158,72.019,9.844z M71.267,9.844c0-0.563-0.092-1.038-0.277-1.426c-0.185-0.387-0.434-0.681-0.748-0.88
	c-0.314-0.199-0.665-0.299-1.055-0.299c-0.388,0-0.739,0.099-1.054,0.299c-0.314,0.199-0.564,0.492-0.748,0.88
	C67.2,8.805,67.107,9.28,67.107,9.844c0,0.563,0.092,1.039,0.277,1.426c0.185,0.388,0.434,0.681,0.748,0.88
	c0.314,0.199,0.665,0.299,1.054,0.299c0.389,0,0.74-0.1,1.055-0.299c0.314-0.199,0.564-0.492,0.748-0.88
	C71.174,10.882,71.267,10.407,71.267,9.844z M78.517,8.217c-0.037-0.321-0.19-0.572-0.457-0.749s-0.595-0.267-0.984-0.267
	c-0.284,0-0.532,0.047-0.744,0.14c-0.212,0.093-0.377,0.221-0.496,0.384c-0.118,0.163-0.176,0.349-0.176,0.556
	c0,0.174,0.041,0.322,0.123,0.446c0.083,0.124,0.189,0.226,0.318,0.308c0.13,0.082,0.265,0.148,0.407,0.2
	c0.143,0.052,0.273,0.094,0.392,0.126l0.651,0.178c0.167,0.044,0.354,0.106,0.559,0.184c0.206,0.078,0.403,0.185,0.593,0.319
	c0.188,0.134,0.345,0.307,0.468,0.516s0.185,0.467,0.185,0.772c0,0.351-0.091,0.669-0.272,0.953
	c-0.18,0.284-0.443,0.509-0.789,0.676c-0.345,0.168-0.764,0.251-1.257,0.251c-0.46,0-0.857-0.075-1.192-0.225
	c-0.336-0.15-0.599-0.36-0.789-0.629c-0.191-0.269-0.3-0.581-0.325-0.937h0.803c0.021,0.246,0.103,0.448,0.245,0.608
	c0.143,0.16,0.325,0.278,0.545,0.356c0.22,0.077,0.458,0.116,0.713,0.116c0.296,0,0.563-0.049,0.799-0.147s0.423-0.236,0.56-0.413
	c0.138-0.177,0.207-0.384,0.207-0.621c0-0.216-0.06-0.391-0.178-0.527c-0.119-0.136-0.276-0.246-0.47-0.33
	c-0.194-0.085-0.404-0.159-0.629-0.223l-0.789-0.229c-0.501-0.146-0.899-0.355-1.191-0.626c-0.292-0.271-0.439-0.625-0.439-1.064
	c0-0.364,0.098-0.682,0.293-0.954c0.195-0.272,0.458-0.484,0.789-0.635c0.331-0.152,0.701-0.227,1.11-0.227
	c0.413,0,0.781,0.075,1.102,0.224c0.322,0.149,0.578,0.353,0.766,0.611c0.189,0.258,0.288,0.552,0.3,0.88H78.517z M80.237,6.592
	h0.927l2.18,5.399h0.076l2.18-5.399h0.928v6.504H85.8V8.154h-0.063l-2.005,4.942h-0.702l-2.004-4.942h-0.063v4.942h-0.726V6.592z
	 M91.83,13.096h0.815L90.29,6.592h-0.802l-2.356,6.504h0.815l0.645-1.842h2.594L91.83,13.096z M88.836,10.555l1.027-2.934h0.05
	l1.027,2.934H88.836z M97.849,13.096l-1.45-2.683c0.091-0.032,0.176-0.068,0.256-0.11c0.32-0.168,0.557-0.401,0.711-0.697
	c0.155-0.296,0.232-0.636,0.232-1.019c0-0.383-0.077-0.725-0.232-1.026c-0.154-0.301-0.393-0.538-0.714-0.71
	c-0.322-0.172-0.733-0.259-1.235-0.259h-2.167v6.504h0.776v-2.541h1.404c0.056,0,0.107-0.005,0.161-0.007l1.354,2.548H97.849z
	 M94.027,7.29h1.366c0.346,0,0.625,0.054,0.836,0.161c0.211,0.107,0.364,0.258,0.46,0.453c0.096,0.195,0.145,0.422,0.145,0.683
	c0,0.26-0.048,0.484-0.143,0.672c-0.095,0.187-0.247,0.332-0.457,0.433c-0.21,0.101-0.486,0.152-0.829,0.152h-1.378V7.29z
	 M98.141,7.29V6.592h4.811V7.29h-2.017v5.805h-0.777V7.29H98.141z M49.183,17.263h-0.776c-0.046-0.227-0.126-0.426-0.24-0.597
	c-0.114-0.171-0.252-0.316-0.413-0.433c-0.161-0.118-0.341-0.206-0.538-0.265c-0.196-0.059-0.4-0.089-0.614-0.089
	c-0.388,0-0.739,0.099-1.054,0.299c-0.314,0.199-0.564,0.492-0.748,0.88c-0.185,0.388-0.277,0.863-0.277,1.426
	c0,0.563,0.092,1.039,0.277,1.426c0.185,0.388,0.434,0.681,0.748,0.88c0.314,0.199,0.665,0.299,1.054,0.299
	c0.214,0,0.418-0.03,0.614-0.089c0.197-0.059,0.376-0.148,0.538-0.265c0.161-0.118,0.3-0.263,0.413-0.435s0.194-0.371,0.24-0.595
	h0.776c-0.058,0.332-0.164,0.63-0.319,0.893c-0.155,0.262-0.347,0.485-0.577,0.668c-0.23,0.183-0.487,0.322-0.772,0.418
	c-0.286,0.095-0.59,0.143-0.914,0.143c-0.547,0-1.033-0.136-1.46-0.407c-0.426-0.271-0.761-0.656-1.005-1.156
	c-0.244-0.5-0.367-1.093-0.367-1.779s0.122-1.278,0.367-1.778c0.244-0.5,0.58-0.885,1.005-1.156c0.426-0.271,0.913-0.406,1.46-0.406
	c0.324,0,0.628,0.048,0.914,0.143c0.285,0.096,0.542,0.235,0.772,0.418c0.23,0.183,0.422,0.405,0.577,0.667
	C49.018,16.63,49.125,16.928,49.183,17.263z M55.452,18.482c0,0.686-0.122,1.279-0.367,1.779c-0.244,0.5-0.58,0.885-1.005,1.156
	c-0.426,0.271-0.913,0.407-1.46,0.407c-0.547,0-1.033-0.136-1.46-0.407c-0.426-0.271-0.761-0.656-1.005-1.156
	c-0.244-0.5-0.367-1.093-0.367-1.779s0.122-1.278,0.367-1.778c0.244-0.5,0.58-0.885,1.005-1.156c0.426-0.271,0.913-0.406,1.46-0.406
	c0.548,0,1.034,0.135,1.46,0.406c0.426,0.271,0.761,0.657,1.005,1.156C55.33,17.204,55.452,17.796,55.452,18.482z M54.7,18.482
	c0-0.563-0.092-1.038-0.277-1.426c-0.185-0.387-0.434-0.681-0.748-0.88c-0.314-0.199-0.665-0.299-1.055-0.299
	c-0.388,0-0.739,0.099-1.054,0.299c-0.314,0.199-0.564,0.492-0.748,0.88c-0.185,0.388-0.277,0.863-0.277,1.426
	c0,0.563,0.092,1.039,0.277,1.426c0.185,0.388,0.434,0.681,0.748,0.88c0.314,0.199,0.665,0.299,1.054,0.299
	c0.389,0,0.74-0.1,1.055-0.299c0.314-0.199,0.564-0.492,0.748-0.88C54.607,19.521,54.7,19.045,54.7,18.482z M61.445,15.23v6.504
	h-0.752l-3.496-5.107h-0.063v5.107h-0.776V15.23h0.751l3.509,5.119h0.063V15.23H61.445z M67.688,15.23v6.504h-0.751l-3.496-5.107
	h-0.063v5.107h-0.777V15.23h0.752l3.508,5.119h0.063V15.23H67.688z M68.845,21.734V15.23h3.871v0.698h-3.094v2.198h2.895v0.698
	h-2.895v2.211h3.145v0.698H68.845z M78.884,17.263h-0.776c-0.046-0.227-0.126-0.426-0.24-0.597
	c-0.114-0.171-0.252-0.316-0.413-0.433c-0.161-0.118-0.341-0.206-0.538-0.265c-0.196-0.059-0.4-0.089-0.614-0.089
	c-0.388,0-0.739,0.099-1.054,0.299c-0.314,0.199-0.564,0.492-0.748,0.88c-0.185,0.388-0.277,0.863-0.277,1.426
	c0,0.563,0.092,1.039,0.277,1.426c0.185,0.388,0.434,0.681,0.748,0.88c0.314,0.199,0.665,0.299,1.054,0.299
	c0.214,0,0.418-0.03,0.614-0.089c0.197-0.059,0.376-0.148,0.538-0.265c0.161-0.118,0.3-0.263,0.413-0.435
	c0.114-0.173,0.194-0.371,0.24-0.595h0.776c-0.058,0.332-0.164,0.63-0.319,0.893c-0.155,0.262-0.347,0.485-0.577,0.668
	c-0.23,0.183-0.487,0.322-0.772,0.418c-0.286,0.095-0.59,0.143-0.914,0.143c-0.547,0-1.033-0.136-1.46-0.407
	c-0.426-0.271-0.761-0.656-1.005-1.156c-0.244-0.5-0.367-1.093-0.367-1.779s0.122-1.278,0.367-1.778
	c0.244-0.5,0.58-0.885,1.005-1.156c0.426-0.271,0.913-0.406,1.46-0.406c0.324,0,0.628,0.048,0.914,0.143
	c0.285,0.096,0.542,0.235,0.772,0.418c0.23,0.183,0.422,0.405,0.577,0.667C78.72,16.63,78.826,16.928,78.884,17.263z M79.39,15.929
	V15.23h4.811v0.698h-2.017v5.805h-0.777v-5.805H79.39z M85.007,21.734V15.23h3.872v0.698h-3.094v2.198h2.894v0.698h-2.894v2.211
	h3.145v0.698H85.007z M91.865,21.734h-1.98V15.23h2.068c0.622,0,1.154,0.13,1.597,0.389c0.443,0.259,0.782,0.631,1.018,1.115
	c0.236,0.484,0.355,1.062,0.355,1.736c0,0.677-0.119,1.26-0.357,1.748c-0.238,0.488-0.585,0.863-1.04,1.124
	C93.07,21.604,92.516,21.734,91.865,21.734z M90.662,21.036h1.152c0.53,0,0.97-0.104,1.319-0.311
	c0.349-0.208,0.608-0.503,0.78-0.886c0.171-0.384,0.257-0.839,0.257-1.369c0-0.525-0.085-0.978-0.254-1.358
	c-0.169-0.38-0.422-0.672-0.758-0.876c-0.337-0.204-0.755-0.307-1.256-0.307h-1.24V21.036z M101.42,16.856
	c-0.037-0.321-0.19-0.572-0.457-0.749c-0.267-0.178-0.595-0.267-0.984-0.267c-0.284,0-0.532,0.047-0.744,0.14
	c-0.212,0.093-0.377,0.221-0.496,0.384c-0.118,0.163-0.176,0.349-0.176,0.556c0,0.174,0.041,0.322,0.123,0.446
	c0.083,0.124,0.189,0.226,0.318,0.308c0.13,0.082,0.265,0.148,0.407,0.2c0.143,0.052,0.273,0.094,0.392,0.126l0.651,0.178
	c0.167,0.044,0.354,0.106,0.559,0.184c0.206,0.078,0.403,0.185,0.593,0.319c0.189,0.134,0.345,0.307,0.468,0.516
	c0.123,0.21,0.185,0.467,0.185,0.772c0,0.351-0.091,0.669-0.272,0.953c-0.18,0.284-0.443,0.509-0.789,0.676
	c-0.345,0.168-0.764,0.251-1.257,0.251c-0.46,0-0.857-0.075-1.192-0.225c-0.336-0.15-0.599-0.36-0.789-0.629
	c-0.191-0.269-0.3-0.581-0.325-0.937h0.803c0.021,0.246,0.103,0.448,0.245,0.608c0.143,0.16,0.325,0.278,0.545,0.356
	c0.22,0.077,0.458,0.116,0.713,0.116c0.296,0,0.563-0.049,0.799-0.147c0.236-0.098,0.423-0.236,0.56-0.413
	c0.138-0.177,0.207-0.384,0.207-0.621c0-0.216-0.06-0.391-0.178-0.527c-0.119-0.136-0.276-0.246-0.47-0.33
	c-0.194-0.085-0.404-0.159-0.629-0.223l-0.789-0.229c-0.501-0.146-0.899-0.355-1.191-0.626c-0.292-0.271-0.439-0.625-0.439-1.064
	c0-0.364,0.098-0.682,0.293-0.954c0.195-0.272,0.458-0.484,0.789-0.635c0.331-0.152,0.701-0.227,1.111-0.227
	c0.413,0,0.781,0.075,1.102,0.224c0.322,0.149,0.578,0.353,0.766,0.611c0.189,0.258,0.288,0.552,0.3,0.88H101.42z M103.14,21.734
	V15.23h2.168c0.503,0,0.915,0.091,1.236,0.274c0.321,0.183,0.558,0.431,0.713,0.742c0.154,0.311,0.231,0.658,0.231,1.041
	s-0.077,0.732-0.23,1.045c-0.153,0.314-0.389,0.563-0.709,0.748c-0.319,0.185-0.729,0.278-1.228,0.278h-1.554V18.66h1.53
	c0.344,0,0.621-0.06,0.83-0.181c0.209-0.121,0.361-0.285,0.455-0.491c0.095-0.206,0.143-0.44,0.143-0.7s-0.048-0.493-0.143-0.698
	c-0.094-0.205-0.247-0.367-0.458-0.484s-0.491-0.176-0.84-0.176h-1.365v5.805H103.14z M111.84,21.734h0.814l-2.355-6.504h-0.802
	l-2.355,6.504h0.815l0.645-1.842h2.594L111.84,21.734z M108.845,19.194l1.027-2.934h0.05l1.027,2.934H108.845z M118.12,17.263
	h-0.776c-0.046-0.227-0.126-0.426-0.24-0.597c-0.114-0.171-0.252-0.316-0.413-0.433c-0.161-0.118-0.341-0.206-0.538-0.265
	c-0.196-0.059-0.4-0.089-0.614-0.089c-0.388,0-0.739,0.099-1.054,0.299c-0.314,0.199-0.564,0.492-0.748,0.88
	c-0.185,0.388-0.277,0.863-0.277,1.426c0,0.563,0.092,1.039,0.277,1.426c0.185,0.388,0.434,0.681,0.748,0.88
	c0.314,0.199,0.665,0.299,1.054,0.299c0.214,0,0.418-0.03,0.614-0.089c0.197-0.059,0.376-0.148,0.538-0.265
	c0.161-0.118,0.3-0.263,0.413-0.435c0.114-0.173,0.194-0.371,0.24-0.595h0.776c-0.058,0.332-0.164,0.63-0.319,0.893
	c-0.155,0.262-0.347,0.485-0.577,0.668c-0.23,0.183-0.487,0.322-0.772,0.418c-0.286,0.095-0.59,0.143-0.914,0.143
	c-0.547,0-1.033-0.136-1.46-0.407c-0.426-0.271-0.761-0.656-1.005-1.156c-0.244-0.5-0.367-1.093-0.367-1.779
	s0.122-1.278,0.367-1.778c0.244-0.5,0.58-0.885,1.005-1.156c0.426-0.271,0.913-0.406,1.46-0.406c0.324,0,0.628,0.048,0.914,0.143
	c0.285,0.096,0.542,0.235,0.772,0.418c0.23,0.183,0.422,0.405,0.577,0.667C117.956,16.63,118.062,16.928,118.12,17.263z
	 M118.977,21.734V15.23h3.871v0.698h-3.094v2.198h2.895v0.698h-2.895v2.211h3.145v0.698H118.977z M127.363,16.856
	c-0.037-0.321-0.19-0.572-0.457-0.749c-0.267-0.178-0.595-0.267-0.984-0.267c-0.284,0-0.532,0.047-0.744,0.14
	c-0.212,0.093-0.377,0.221-0.496,0.384c-0.118,0.163-0.176,0.349-0.176,0.556c0,0.174,0.041,0.322,0.123,0.446
	c0.083,0.124,0.188,0.226,0.318,0.308c0.13,0.082,0.265,0.148,0.407,0.2c0.143,0.052,0.273,0.094,0.392,0.126l0.651,0.178
	c0.167,0.044,0.354,0.106,0.559,0.184c0.206,0.078,0.403,0.185,0.593,0.319c0.189,0.134,0.345,0.307,0.468,0.516
	s0.185,0.467,0.185,0.772c0,0.351-0.091,0.669-0.272,0.953c-0.18,0.284-0.443,0.509-0.789,0.676
	c-0.345,0.168-0.764,0.251-1.257,0.251c-0.46,0-0.857-0.075-1.192-0.225c-0.336-0.15-0.599-0.36-0.789-0.629
	c-0.191-0.269-0.3-0.581-0.325-0.937h0.803c0.021,0.246,0.103,0.448,0.245,0.608c0.143,0.16,0.325,0.278,0.545,0.356
	c0.22,0.077,0.458,0.116,0.713,0.116c0.296,0,0.563-0.049,0.799-0.147s0.423-0.236,0.56-0.413c0.138-0.177,0.207-0.384,0.207-0.621
	c0-0.216-0.06-0.391-0.178-0.527c-0.119-0.136-0.276-0.246-0.47-0.33c-0.194-0.085-0.404-0.159-0.629-0.223l-0.789-0.229
	c-0.501-0.146-0.899-0.355-1.191-0.626c-0.292-0.271-0.439-0.625-0.439-1.064c0-0.364,0.098-0.682,0.293-0.954
	c0.195-0.272,0.458-0.484,0.789-0.635c0.331-0.152,0.701-0.227,1.11-0.227c0.413,0,0.781,0.075,1.102,0.224
	c0.322,0.149,0.578,0.353,0.766,0.611c0.189,0.258,0.288,0.552,0.3,0.88H127.363z M43.47,25.195v-0.35h3.053v0.35h-1.334v3.918
	h-0.384v-3.918H43.47z M49.146,27.44c0-0.268-0.037-0.5-0.111-0.697c-0.074-0.196-0.175-0.36-0.302-0.49
	c-0.127-0.129-0.269-0.226-0.429-0.289c-0.158-0.064-0.323-0.095-0.495-0.095c-0.272,0-0.513,0.071-0.72,0.213
	c-0.208,0.142-0.37,0.339-0.488,0.59c-0.117,0.25-0.175,0.537-0.175,0.859c0,0.324,0.059,0.609,0.175,0.857
	c0.118,0.248,0.284,0.442,0.499,0.581c0.214,0.139,0.47,0.21,0.765,0.21c0.211,0,0.397-0.035,0.56-0.103
	c0.162-0.069,0.298-0.16,0.407-0.274c0.109-0.114,0.188-0.238,0.235-0.373l-0.347-0.115c-0.04,0.096-0.099,0.184-0.175,0.264
	c-0.078,0.08-0.173,0.143-0.286,0.191c-0.114,0.047-0.245,0.071-0.394,0.071c-0.22,0-0.41-0.052-0.57-0.156
	c-0.16-0.104-0.284-0.251-0.371-0.441c-0.082-0.178-0.121-0.386-0.126-0.62h2.347V27.44z M46.804,27.296
	c0.011-0.178,0.047-0.346,0.121-0.498c0.086-0.177,0.205-0.321,0.357-0.429c0.153-0.108,0.328-0.162,0.528-0.162
	c0.189,0,0.356,0.048,0.501,0.144c0.144,0.096,0.257,0.226,0.339,0.391c0.082,0.165,0.122,0.35,0.122,0.555H46.804z M51.81,26.615
	l-0.336,0.096c-0.032-0.096-0.079-0.183-0.139-0.26c-0.06-0.078-0.138-0.14-0.235-0.185c-0.097-0.046-0.216-0.069-0.359-0.069
	c-0.213,0-0.389,0.051-0.526,0.154c-0.137,0.103-0.206,0.235-0.206,0.398c0,0.138,0.047,0.249,0.141,0.334
	c0.094,0.085,0.239,0.153,0.434,0.203l0.477,0.119c0.265,0.065,0.463,0.169,0.595,0.311c0.133,0.142,0.198,0.319,0.198,0.534
	c0,0.18-0.049,0.341-0.148,0.481c-0.099,0.14-0.236,0.25-0.412,0.33c-0.176,0.08-0.38,0.12-0.612,0.12
	c-0.308,0-0.563-0.071-0.763-0.212c-0.2-0.141-0.328-0.345-0.384-0.612l0.352-0.088c0.045,0.191,0.134,0.334,0.266,0.432
	c0.133,0.097,0.306,0.146,0.524,0.146c0.242,0,0.436-0.055,0.581-0.166c0.145-0.111,0.218-0.249,0.218-0.415
	c0-0.129-0.043-0.238-0.128-0.326c-0.084-0.088-0.213-0.153-0.386-0.195l-0.516-0.125c-0.274-0.067-0.477-0.173-0.608-0.317
	c-0.132-0.145-0.197-0.324-0.197-0.538c0-0.176,0.046-0.332,0.141-0.466c0.095-0.134,0.225-0.239,0.391-0.316
	c0.166-0.076,0.355-0.114,0.567-0.114c0.289,0,0.52,0.066,0.693,0.199C51.608,26.2,51.734,26.383,51.81,26.615z M53.741,29.105
	c-0.036,0.014-0.08,0.027-0.132,0.039c-0.052,0.012-0.117,0.018-0.193,0.018c-0.134,0-0.264-0.03-0.387-0.09
	c-0.124-0.06-0.226-0.148-0.305-0.267c-0.08-0.118-0.12-0.265-0.12-0.44v-2.13h-0.471v-0.323h0.471v-0.767h0.368v0.767h0.668v0.323
	h-0.668v2.042c0,0.133,0.023,0.238,0.068,0.314c0.045,0.076,0.103,0.129,0.176,0.161c0.073,0.031,0.15,0.047,0.232,0.047
	c0.047,0,0.089-0.003,0.123-0.009c0.034-0.006,0.064-0.013,0.09-0.02L53.741,29.105z M55.653,29.113v-4.268h1.42
	c0.274,0,0.503,0.049,0.686,0.146s0.321,0.23,0.413,0.398c0.091,0.168,0.138,0.359,0.138,0.573c0,0.178-0.029,0.33-0.088,0.457
	c-0.06,0.126-0.139,0.229-0.241,0.306c-0.101,0.078-0.214,0.134-0.34,0.169v0.033c0.136,0.009,0.267,0.058,0.396,0.145
	c0.127,0.087,0.231,0.208,0.314,0.364c0.083,0.156,0.123,0.342,0.123,0.558c0,0.216-0.047,0.407-0.141,0.576
	c-0.095,0.169-0.24,0.302-0.435,0.398c-0.195,0.096-0.443,0.145-0.745,0.145H55.653z M56.037,26.773h1.071
	c0.166,0,0.311-0.035,0.436-0.104c0.124-0.069,0.222-0.166,0.291-0.287c0.07-0.122,0.105-0.262,0.105-0.419
	c0-0.226-0.073-0.411-0.218-0.553c-0.145-0.142-0.361-0.213-0.65-0.213h-1.036V26.773z M56.037,28.763h1.115
	c0.324,0,0.564-0.073,0.72-0.219c0.156-0.146,0.233-0.329,0.233-0.55c0-0.162-0.039-0.31-0.116-0.443
	c-0.078-0.133-0.187-0.238-0.327-0.316c-0.14-0.078-0.305-0.117-0.494-0.117h-1.131V28.763z M61.621,27.44
	c0-0.268-0.037-0.5-0.111-0.697c-0.074-0.196-0.175-0.36-0.301-0.49c-0.127-0.129-0.27-0.226-0.429-0.289
	c-0.159-0.064-0.324-0.095-0.495-0.095c-0.273,0-0.513,0.071-0.721,0.213c-0.208,0.142-0.37,0.339-0.487,0.59
	c-0.118,0.25-0.176,0.537-0.176,0.859c0,0.324,0.059,0.609,0.176,0.857c0.117,0.248,0.283,0.442,0.498,0.581
	c0.215,0.139,0.47,0.21,0.765,0.21c0.212,0,0.397-0.035,0.561-0.103c0.162-0.069,0.298-0.16,0.407-0.274
	c0.108-0.114,0.187-0.238,0.235-0.373l-0.348-0.115c-0.039,0.096-0.098,0.184-0.175,0.264c-0.077,0.08-0.173,0.143-0.285,0.191
	c-0.113,0.047-0.244,0.071-0.394,0.071c-0.219,0-0.409-0.052-0.569-0.156s-0.285-0.251-0.371-0.441
	c-0.082-0.178-0.122-0.386-0.127-0.62h2.347V27.44z M59.279,27.296c0.011-0.178,0.047-0.346,0.121-0.498
	c0.085-0.177,0.204-0.321,0.357-0.429c0.152-0.108,0.328-0.162,0.528-0.162c0.189,0,0.356,0.048,0.5,0.144
	c0.145,0.096,0.258,0.226,0.34,0.391c0.082,0.165,0.122,0.35,0.122,0.555H59.279z M63.3,29.18c-0.259,0-0.486-0.07-0.68-0.209
	c-0.195-0.139-0.347-0.332-0.455-0.581c-0.109-0.249-0.164-0.538-0.164-0.869c0-0.329,0.055-0.618,0.164-0.866
	c0.108-0.248,0.261-0.441,0.457-0.579c0.195-0.138,0.424-0.207,0.684-0.207c0.192,0,0.352,0.034,0.479,0.103
	c0.127,0.069,0.23,0.154,0.306,0.256c0.077,0.101,0.137,0.2,0.178,0.295h0.033v-1.678h0.368v4.268h-0.358v-0.594H64.27
	c-0.042,0.097-0.102,0.197-0.18,0.299c-0.079,0.102-0.181,0.188-0.309,0.258C63.652,29.145,63.492,29.18,63.3,29.18z M63.343,28.84
	c0.204,0,0.378-0.056,0.523-0.17c0.143-0.113,0.253-0.269,0.329-0.469c0.077-0.2,0.115-0.428,0.115-0.687
	c0-0.256-0.038-0.482-0.114-0.678c-0.075-0.197-0.185-0.351-0.328-0.463c-0.144-0.111-0.319-0.167-0.525-0.167
	c-0.211,0-0.389,0.058-0.533,0.174c-0.144,0.116-0.254,0.273-0.329,0.47c-0.075,0.197-0.112,0.419-0.112,0.665
	c0,0.249,0.038,0.473,0.113,0.673c0.076,0.2,0.186,0.359,0.33,0.476C62.956,28.782,63.134,28.84,63.343,28.84z M30.279,20.947
	c-2.581,2.581-5.587,4.608-8.935,6.024c-3.466,1.466-7.147,2.209-10.941,2.209c-1.319,0-2.624-0.09-3.911-0.269v-0.93
	c1.284,0.184,2.591,0.279,3.911,0.279c7.262,0,14.09-2.828,19.226-7.963c3.83-3.83,6.376-8.602,7.423-13.794l0.935,0v0.011
	c-0.369,1.881-0.931,3.718-1.684,5.499C34.887,15.36,32.86,18.366,30.279,20.947z M10.403,25.364c-1.323,0-2.63-0.107-3.911-0.313
	l0-0.932c1.28,0.214,2.587,0.325,3.911,0.325c6.243,0,12.112-2.431,16.527-6.846c3.104-3.104,5.226-6.928,6.213-11.095h0.946
	c-1.003,4.414-3.229,8.466-6.508,11.746C22.992,22.837,16.891,25.364,10.403,25.364z M10.403,21.723
	c-1.327,0-2.635-0.126-3.911-0.369v-0.937c1.274,0.255,2.583,0.386,3.911,0.386c5.27,0,10.226-2.052,13.952-5.779
	c2.409-2.409,4.117-5.332,5.025-8.521l0.955,0c-0.93,3.436-2.745,6.586-5.33,9.171C21.105,19.575,15.919,21.723,10.403,21.723z"/>
</svg>
