<?xml version="1.0" encoding="iso-8859-1"?>
<!-- Generator: Adobe Illustrator 29.3.0, SVG Export Plug-In . SVG Version: 9.03 Build 55982)  -->
<svg version="1.1" id="Layer_1" xmlns="http://www.w3.org/2000/svg" xmlns:xlink="http://www.w3.org/1999/xlink" x="0px" y="0px"
	 viewBox="0 0 133.228 65.197" style="enable-background:new 0 0 133.228 65.197;" xml:space="preserve">
<rect x="0" y="0" style="fill:none;stroke:#B3B3B3;stroke-width:0.15;stroke-miterlimit:10;" width="65.197" height="65.197"/>
<path d="M47.67,38.466c-4.839,4.839-10.474,8.638-16.749,11.292C24.424,52.507,17.523,53.9,10.41,53.9
	c-2.472,0-4.919-0.169-7.332-0.504l0-1.743c2.408,0.345,4.856,0.522,7.332,0.522c13.614,0,26.414-5.302,36.041-14.929
	c7.18-7.181,11.953-16.127,13.916-25.859l1.752,0v0.021c-0.691,3.525-1.745,6.97-3.157,10.308
	C56.309,27.992,52.509,33.627,47.67,38.466z M42.611,33.408c6.148-6.148,10.32-13.744,12.201-22.019H53.04
	c-1.85,7.812-5.828,14.981-11.647,20.8c-8.276,8.276-19.279,12.833-30.982,12.833c-2.482,0-4.932-0.207-7.332-0.609l0,1.747
	c2.402,0.387,4.852,0.587,7.332,0.587C22.574,46.746,34.01,42.009,42.611,33.408z M37.785,28.581
	c4.846-4.846,8.247-10.751,9.992-17.193l-1.791,0c-1.702,5.978-4.904,11.457-9.42,15.974C29.579,34.348,20.29,38.196,10.41,38.196
	c-2.491,0-4.944-0.245-7.332-0.723l0,1.756c2.392,0.456,4.844,0.692,7.332,0.692C20.751,39.92,30.473,35.893,37.785,28.581z"/>
<rect x="68.274" y="0" style="fill:none;stroke:#B3B3B3;stroke-width:0.15;stroke-miterlimit:10;" width="65.197" height="65.197"/>
<path d="M78.783,18.239h0.862l-2.493-6.882h-0.848l-2.493,6.882h0.862l0.682-1.949H78.1L78.783,18.239z M75.614,15.551l1.087-3.105
	h0.053l1.087,3.105H75.614z M79.927,11.358l2.015,5.793h0.079l2.015-5.793h0.862l-2.493,6.882h-0.848l-2.493-6.882L79.927,11.358z
	 M85.539,18.239v-6.882l4.096,0l0,0.739l-3.274,0l0,2.325l3.062,0v0.739l-3.062,0V17.5h3.328v0.739L85.539,18.239z M91.523,11.358
	v6.882h-0.822v-6.882L91.523,11.358z M97.612,18.239l-1.534-2.838c0.096-0.033,0.187-0.072,0.271-0.117
	c0.338-0.178,0.589-0.424,0.752-0.738c0.163-0.313,0.245-0.673,0.245-1.079c0-0.405-0.082-0.767-0.245-1.085
	c-0.163-0.318-0.415-0.569-0.756-0.751c-0.34-0.182-0.776-0.274-1.306-0.274h-2.293v6.882h0.822v-2.688h1.485
	c0.06,0,0.114-0.005,0.171-0.008l1.433,2.696H97.612z M93.568,12.097l1.445,0c0.367,0,0.662,0.057,0.885,0.17
	c0.223,0.113,0.385,0.273,0.487,0.479c0.102,0.206,0.153,0.447,0.153,0.722c0,0.275-0.05,0.512-0.151,0.711
	c-0.1,0.198-0.262,0.351-0.484,0.459c-0.222,0.107-0.514,0.161-0.876,0.161l-1.458,0L93.568,12.097z M104.019,14.798
	c0,0.726-0.129,1.353-0.388,1.882c-0.259,0.529-0.613,0.937-1.064,1.223c-0.451,0.287-0.966,0.431-1.544,0.431
	c-0.579,0-1.094-0.144-1.545-0.431c-0.451-0.286-0.805-0.694-1.064-1.223c-0.258-0.529-0.388-1.156-0.388-1.882
	s0.129-1.353,0.388-1.881c0.259-0.529,0.613-0.937,1.064-1.223s0.966-0.43,1.545-0.43c0.579,0,1.094,0.143,1.544,0.43
	c0.451,0.287,0.805,0.695,1.064,1.223C103.889,13.445,104.019,14.072,104.019,14.798z M103.223,14.798
	c0-0.596-0.098-1.098-0.293-1.509c-0.196-0.41-0.46-0.72-0.792-0.931c-0.333-0.211-0.705-0.316-1.115-0.316
	c-0.411,0-0.783,0.105-1.115,0.316c-0.333,0.21-0.597,0.521-0.792,0.931c-0.196,0.41-0.293,0.913-0.293,1.509
	c0,0.596,0.098,1.099,0.293,1.509c0.196,0.41,0.46,0.72,0.792,0.931c0.332,0.21,0.704,0.316,1.115,0.316
	c0.411,0,0.783-0.106,1.115-0.316c0.332-0.211,0.596-0.521,0.792-0.931C103.126,15.897,103.223,15.394,103.223,14.798z
	 M77.815,22.367c-0.04-0.34-0.201-0.605-0.484-0.793c-0.282-0.188-0.629-0.282-1.04-0.282c-0.301,0-0.563,0.049-0.787,0.148
	c-0.224,0.099-0.399,0.234-0.523,0.406c-0.125,0.173-0.188,0.369-0.188,0.588c0,0.184,0.044,0.341,0.131,0.472
	c0.087,0.131,0.199,0.239,0.337,0.326c0.137,0.086,0.28,0.157,0.431,0.212c0.151,0.055,0.289,0.099,0.415,0.133l0.689,0.188
	c0.177,0.047,0.374,0.112,0.591,0.195c0.218,0.083,0.427,0.196,0.627,0.338c0.2,0.142,0.365,0.324,0.496,0.546
	c0.13,0.222,0.196,0.494,0.196,0.817c0,0.372-0.096,0.708-0.287,1.008s-0.47,0.539-0.835,0.715
	c-0.365,0.177-0.809,0.266-1.331,0.266c-0.486,0-0.906-0.079-1.261-0.238c-0.355-0.159-0.633-0.381-0.835-0.666
	c-0.202-0.284-0.316-0.615-0.343-0.991l0.849,0c0.022,0.26,0.109,0.474,0.26,0.644c0.151,0.169,0.344,0.294,0.577,0.376
	c0.233,0.082,0.484,0.122,0.754,0.122c0.313,0,0.595-0.052,0.845-0.156c0.25-0.104,0.447-0.25,0.593-0.437
	c0.146-0.187,0.219-0.406,0.219-0.657c0-0.228-0.063-0.414-0.189-0.557c-0.126-0.144-0.292-0.26-0.497-0.35
	c-0.205-0.09-0.428-0.168-0.666-0.235l-0.835-0.242c-0.53-0.155-0.95-0.375-1.259-0.662c-0.31-0.286-0.464-0.662-0.464-1.126
	c0-0.385,0.103-0.722,0.31-1.01c0.206-0.288,0.485-0.512,0.835-0.672c0.351-0.16,0.742-0.24,1.175-0.24
	c0.437,0,0.826,0.079,1.167,0.237c0.34,0.158,0.611,0.374,0.811,0.647c0.2,0.274,0.305,0.584,0.316,0.931H77.815z M79.636,20.647
	h0.981l2.307,5.712h0.079l2.307-5.712h0.981v6.882l-0.769,0v-5.229h-0.066l-2.121,5.229h-0.743l-2.121-5.229h-0.067v5.229l-0.769,0
	V20.647z M91.903,27.528h0.862l-2.493-6.882l-0.848,0l-2.493,6.882h0.862l0.682-1.949h2.745L91.903,27.528z M88.734,24.84
	l1.087-3.105h0.053l1.087,3.105L88.734,24.84z M98.27,27.528l-1.534-2.838c0.096-0.033,0.187-0.072,0.271-0.117
	c0.338-0.178,0.589-0.424,0.752-0.738c0.163-0.314,0.245-0.673,0.245-1.079c0-0.405-0.082-0.767-0.245-1.085
	c-0.163-0.318-0.415-0.569-0.756-0.751c-0.34-0.182-0.776-0.274-1.306-0.274l-2.293,0v6.882h0.822V24.84h1.485
	c0.06,0,0.114-0.005,0.171-0.008l1.433,2.696H98.27z M94.227,21.386h1.445c0.367,0,0.662,0.057,0.885,0.17
	c0.223,0.113,0.385,0.272,0.487,0.479c0.102,0.206,0.153,0.447,0.153,0.722c0,0.276-0.05,0.513-0.151,0.711
	c-0.1,0.198-0.262,0.351-0.484,0.459c-0.222,0.107-0.514,0.161-0.876,0.161h-1.458V21.386z M98.579,21.386v-0.739l5.091,0v0.739
	h-2.134v6.143h-0.822v-6.143L98.579,21.386z M79.538,32.113h-0.822c-0.048-0.24-0.133-0.45-0.253-0.632
	c-0.12-0.181-0.267-0.334-0.437-0.459c-0.171-0.124-0.361-0.218-0.569-0.28c-0.207-0.063-0.424-0.094-0.649-0.094
	c-0.411,0-0.783,0.105-1.115,0.316c-0.333,0.21-0.597,0.521-0.792,0.931c-0.196,0.41-0.293,0.913-0.293,1.509
	c0,0.596,0.098,1.099,0.293,1.509c0.196,0.41,0.46,0.72,0.792,0.931c0.332,0.21,0.704,0.316,1.115,0.316
	c0.225,0,0.442-0.032,0.649-0.094c0.208-0.063,0.397-0.157,0.569-0.28c0.171-0.124,0.317-0.278,0.437-0.461
	c0.12-0.183,0.205-0.392,0.253-0.63l0.822,0c-0.062,0.352-0.174,0.666-0.338,0.944c-0.163,0.277-0.367,0.513-0.61,0.707
	c-0.243,0.194-0.515,0.341-0.817,0.442c-0.301,0.101-0.624,0.152-0.966,0.152c-0.579,0-1.094-0.144-1.545-0.431
	c-0.451-0.286-0.805-0.694-1.064-1.223c-0.258-0.529-0.388-1.156-0.388-1.882s0.129-1.353,0.388-1.881
	c0.259-0.529,0.613-0.937,1.064-1.223c0.451-0.287,0.966-0.43,1.545-0.43c0.342,0,0.665,0.05,0.966,0.151
	c0.302,0.101,0.574,0.248,0.817,0.442c0.243,0.194,0.446,0.429,0.61,0.706C79.364,31.443,79.477,31.759,79.538,32.113z
	 M86.171,33.403c0,0.726-0.129,1.353-0.388,1.882c-0.259,0.529-0.613,0.937-1.064,1.223c-0.451,0.287-0.966,0.431-1.544,0.431
	c-0.579,0-1.094-0.144-1.545-0.431c-0.451-0.286-0.805-0.694-1.064-1.223c-0.258-0.529-0.388-1.156-0.388-1.882
	s0.129-1.353,0.388-1.881c0.259-0.529,0.613-0.937,1.064-1.223c0.451-0.287,0.966-0.43,1.545-0.43c0.579,0,1.094,0.143,1.544,0.43
	c0.451,0.287,0.805,0.695,1.064,1.223C86.042,32.05,86.171,32.677,86.171,33.403z M85.376,33.403c0-0.596-0.098-1.098-0.293-1.509
	c-0.196-0.41-0.46-0.72-0.792-0.931c-0.333-0.211-0.705-0.316-1.115-0.316c-0.411,0-0.783,0.105-1.115,0.316
	c-0.333,0.21-0.597,0.521-0.792,0.931c-0.196,0.41-0.293,0.913-0.293,1.509c0,0.596,0.098,1.099,0.293,1.509
	c0.196,0.41,0.46,0.72,0.792,0.931c0.332,0.21,0.704,0.316,1.115,0.316c0.411,0,0.783-0.106,1.115-0.316
	c0.332-0.211,0.596-0.521,0.792-0.931C85.278,34.502,85.376,33.999,85.376,33.403z M92.512,29.962v6.882h-0.795l-3.699-5.404h-0.066
	v5.404H87.13v-6.882h0.795l3.712,5.416h0.066l0-5.416H92.512z M99.118,29.962v6.882h-0.795l-3.699-5.404h-0.066v5.404l-0.822,0
	l0-6.882h0.795l3.712,5.416h0.066v-5.416H99.118z M100.342,36.844v-6.882l4.096,0v0.739h-3.274v2.325h3.062v0.739l-3.062,0v2.339
	l3.328,0v0.739H100.342z M110.965,32.113h-0.822c-0.048-0.24-0.133-0.45-0.253-0.632c-0.12-0.181-0.267-0.334-0.437-0.459
	c-0.171-0.124-0.361-0.218-0.569-0.28c-0.207-0.063-0.424-0.094-0.649-0.094c-0.411,0-0.783,0.105-1.115,0.316
	c-0.333,0.21-0.597,0.521-0.792,0.931c-0.196,0.41-0.293,0.913-0.293,1.509c0,0.596,0.098,1.099,0.293,1.509
	c0.196,0.41,0.46,0.72,0.792,0.931c0.332,0.21,0.704,0.316,1.115,0.316c0.225,0,0.442-0.032,0.649-0.094
	c0.208-0.063,0.397-0.157,0.569-0.28c0.171-0.124,0.317-0.278,0.437-0.461c0.12-0.183,0.205-0.392,0.253-0.63h0.822
	c-0.062,0.352-0.174,0.666-0.338,0.944c-0.163,0.277-0.367,0.513-0.61,0.707c-0.243,0.194-0.515,0.341-0.817,0.442
	c-0.301,0.101-0.624,0.152-0.966,0.152c-0.579,0-1.094-0.144-1.545-0.431c-0.451-0.286-0.805-0.694-1.064-1.223
	c-0.258-0.529-0.388-1.156-0.388-1.882s0.129-1.353,0.388-1.881c0.259-0.529,0.613-0.937,1.064-1.223
	c0.451-0.287,0.966-0.43,1.545-0.43c0.342,0,0.665,0.05,0.966,0.151c0.302,0.101,0.574,0.248,0.817,0.442
	c0.243,0.194,0.446,0.429,0.61,0.706C110.791,31.443,110.903,31.759,110.965,32.113z M111.5,30.701v-0.739l5.091,0v0.739h-2.134
	v6.143h-0.822v-6.143H111.5z M117.444,36.844v-6.882l4.096,0v0.739h-3.274v2.325h3.062v0.739h-3.062v2.339h3.328v0.739
	L117.444,36.844z M124.699,36.844h-2.095v-6.882l2.188,0c0.658,0,1.221,0.137,1.69,0.411c0.469,0.274,0.827,0.668,1.077,1.179
	c0.25,0.512,0.375,1.124,0.375,1.837c0,0.717-0.126,1.333-0.378,1.85c-0.252,0.516-0.619,0.913-1.1,1.189
	C125.974,36.706,125.389,36.844,124.699,36.844z M123.427,36.105h1.219c0.561,0,1.026-0.11,1.395-0.329
	c0.369-0.22,0.644-0.532,0.825-0.938c0.181-0.406,0.272-0.888,0.272-1.449c0-0.555-0.089-1.034-0.268-1.437
	c-0.179-0.402-0.446-0.711-0.802-0.927c-0.355-0.216-0.799-0.324-1.329-0.324h-1.312V36.105z M77.815,40.971
	c-0.04-0.34-0.201-0.605-0.484-0.793c-0.282-0.188-0.629-0.282-1.04-0.282c-0.301,0-0.563,0.049-0.787,0.148
	c-0.224,0.099-0.399,0.234-0.523,0.406c-0.125,0.173-0.188,0.369-0.188,0.588c0,0.184,0.044,0.341,0.131,0.472
	c0.087,0.131,0.199,0.239,0.337,0.326c0.137,0.086,0.28,0.157,0.431,0.212c0.151,0.055,0.289,0.099,0.415,0.133l0.689,0.188
	c0.177,0.047,0.374,0.112,0.591,0.195c0.218,0.083,0.427,0.196,0.627,0.338s0.365,0.324,0.496,0.546
	c0.13,0.222,0.196,0.494,0.196,0.817c0,0.372-0.096,0.708-0.287,1.008c-0.191,0.3-0.47,0.539-0.835,0.715
	c-0.365,0.177-0.809,0.266-1.331,0.266c-0.486,0-0.906-0.079-1.261-0.238c-0.355-0.159-0.633-0.381-0.835-0.666
	c-0.202-0.284-0.316-0.615-0.343-0.991l0.849,0c0.022,0.26,0.109,0.474,0.26,0.644c0.151,0.169,0.344,0.294,0.577,0.376
	c0.233,0.082,0.484,0.122,0.754,0.122c0.313,0,0.595-0.052,0.845-0.156c0.25-0.104,0.447-0.25,0.593-0.437
	c0.146-0.187,0.219-0.406,0.219-0.657c0-0.228-0.063-0.414-0.189-0.557c-0.126-0.144-0.292-0.26-0.497-0.35
	c-0.205-0.09-0.428-0.168-0.666-0.235l-0.835-0.242c-0.53-0.155-0.95-0.375-1.259-0.662c-0.31-0.286-0.464-0.662-0.464-1.126
	c0-0.385,0.103-0.722,0.31-1.01c0.206-0.288,0.485-0.512,0.835-0.672c0.351-0.16,0.742-0.24,1.175-0.24
	c0.437,0,0.826,0.079,1.167,0.237c0.34,0.158,0.611,0.374,0.811,0.647c0.2,0.274,0.305,0.584,0.316,0.931H77.815z M83.99,40.326
	c-0.163-0.329-0.415-0.591-0.754-0.785c-0.339-0.194-0.775-0.29-1.308-0.29h-2.293v6.882h0.822v-2.513h1.484
	c0.528,0,0.961-0.098,1.299-0.294c0.338-0.196,0.588-0.46,0.75-0.791c0.162-0.331,0.244-0.7,0.244-1.105
	C84.236,41.023,84.154,40.656,83.99,40.326z M83.276,42.169c-0.1,0.218-0.261,0.391-0.482,0.519
	c-0.221,0.127-0.514,0.191-0.878,0.191h-1.458v-2.89l1.445,0c0.369,0,0.665,0.062,0.888,0.187c0.223,0.124,0.385,0.295,0.485,0.512
	c0.101,0.217,0.151,0.464,0.151,0.739S83.377,41.951,83.276,42.169z M88.84,46.133h0.862l-2.493-6.882h-0.848l-2.493,6.882h0.862
	l0.682-1.949h2.745L88.84,46.133z M85.672,43.445l1.087-3.105h0.053l1.087,3.105H85.672z M95.486,41.402h-0.822
	c-0.048-0.24-0.133-0.45-0.253-0.632c-0.12-0.181-0.267-0.334-0.437-0.459c-0.171-0.124-0.361-0.218-0.569-0.28
	c-0.207-0.063-0.424-0.094-0.649-0.094c-0.411,0-0.783,0.105-1.115,0.316c-0.333,0.21-0.597,0.521-0.792,0.931
	c-0.196,0.41-0.293,0.913-0.293,1.509c0,0.596,0.098,1.099,0.293,1.509c0.196,0.41,0.46,0.72,0.792,0.931
	c0.332,0.21,0.704,0.316,1.115,0.316c0.225,0,0.442-0.032,0.649-0.094c0.208-0.063,0.397-0.157,0.569-0.28
	c0.171-0.124,0.317-0.278,0.437-0.461c0.12-0.183,0.205-0.392,0.253-0.63h0.822c-0.062,0.352-0.174,0.666-0.338,0.944
	c-0.163,0.277-0.367,0.513-0.61,0.707c-0.243,0.194-0.515,0.341-0.817,0.442c-0.301,0.101-0.624,0.152-0.966,0.152
	c-0.579,0-1.094-0.144-1.545-0.431c-0.451-0.286-0.805-0.694-1.064-1.223c-0.258-0.529-0.388-1.156-0.388-1.882
	s0.129-1.353,0.388-1.881c0.259-0.529,0.613-0.937,1.064-1.223c0.451-0.287,0.966-0.43,1.545-0.43c0.342,0,0.665,0.05,0.966,0.151
	c0.302,0.101,0.574,0.248,0.817,0.442c0.243,0.194,0.446,0.429,0.61,0.706C95.312,40.732,95.425,41.048,95.486,41.402z
	 M96.392,46.133v-6.882h4.096v0.739l-3.274,0v2.325h3.062v0.739h-3.062v2.339h3.328v0.739L96.392,46.133z M105.265,40.971
	c-0.04-0.34-0.201-0.605-0.484-0.793c-0.282-0.188-0.629-0.282-1.04-0.282c-0.301,0-0.563,0.049-0.787,0.148
	c-0.224,0.099-0.399,0.234-0.523,0.406c-0.125,0.173-0.188,0.369-0.188,0.588c0,0.184,0.044,0.341,0.131,0.472
	c0.087,0.131,0.199,0.239,0.337,0.326c0.137,0.086,0.28,0.157,0.431,0.212c0.151,0.055,0.289,0.099,0.415,0.133l0.689,0.188
	c0.177,0.047,0.374,0.112,0.591,0.195c0.218,0.083,0.427,0.196,0.627,0.338c0.2,0.142,0.365,0.324,0.496,0.546
	c0.13,0.222,0.196,0.494,0.196,0.817c0,0.372-0.096,0.708-0.287,1.008c-0.191,0.3-0.47,0.539-0.835,0.715
	c-0.365,0.177-0.809,0.266-1.331,0.266c-0.486,0-0.906-0.079-1.261-0.238c-0.355-0.159-0.633-0.381-0.835-0.666
	c-0.202-0.284-0.316-0.615-0.343-0.991h0.849c0.022,0.26,0.109,0.474,0.26,0.644c0.151,0.169,0.344,0.294,0.577,0.376
	c0.233,0.082,0.484,0.122,0.754,0.122c0.313,0,0.595-0.052,0.845-0.156c0.25-0.104,0.447-0.25,0.593-0.437
	c0.146-0.187,0.219-0.406,0.219-0.657c0-0.228-0.063-0.414-0.189-0.557c-0.126-0.144-0.292-0.26-0.497-0.35
	c-0.205-0.09-0.428-0.168-0.666-0.235l-0.835-0.242c-0.53-0.155-0.95-0.375-1.259-0.662c-0.31-0.286-0.464-0.662-0.464-1.126
	c0-0.385,0.103-0.722,0.31-1.01c0.206-0.288,0.485-0.512,0.835-0.672c0.351-0.16,0.742-0.24,1.175-0.24
	c0.437,0,0.826,0.079,1.167,0.237c0.34,0.158,0.611,0.374,0.811,0.647c0.2,0.274,0.305,0.584,0.316,0.931H105.265z M73.811,49.805
	v-0.371l3.233,0v0.371h-1.412v4.149h-0.407v-4.149H73.811z M78.467,54.025c-0.312,0-0.583-0.074-0.81-0.222
	c-0.228-0.148-0.404-0.353-0.528-0.616c-0.124-0.263-0.186-0.565-0.186-0.908c0-0.341,0.062-0.645,0.186-0.91
	c0.125-0.266,0.296-0.474,0.516-0.625c0.219-0.151,0.474-0.226,0.762-0.226c0.182,0,0.357,0.033,0.524,0.1
	c0.169,0.067,0.319,0.169,0.454,0.306c0.135,0.138,0.241,0.311,0.319,0.519c0.078,0.208,0.118,0.454,0.118,0.738v0.194H77.21V52.03
	h2.216c0-0.218-0.043-0.414-0.13-0.588c-0.086-0.175-0.206-0.312-0.359-0.414c-0.154-0.101-0.331-0.152-0.53-0.152
	c-0.212,0-0.398,0.057-0.56,0.172c-0.161,0.115-0.286,0.267-0.378,0.455c-0.09,0.188-0.137,0.394-0.138,0.618v0.207
	c0,0.269,0.045,0.504,0.138,0.705c0.092,0.2,0.223,0.356,0.393,0.467s0.371,0.165,0.604,0.165c0.158,0,0.296-0.025,0.417-0.075
	c0.12-0.05,0.22-0.118,0.302-0.202c0.081-0.084,0.144-0.178,0.186-0.279l0.368,0.122c-0.05,0.143-0.134,0.274-0.249,0.395
	c-0.116,0.121-0.259,0.217-0.431,0.29C78.888,53.989,78.69,54.025,78.467,54.025z M82.645,51.308l-0.356,0.101
	c-0.034-0.101-0.083-0.193-0.148-0.276c-0.063-0.082-0.147-0.148-0.249-0.196c-0.102-0.049-0.229-0.073-0.38-0.073
	c-0.226,0-0.412,0.054-0.558,0.163c-0.145,0.109-0.218,0.249-0.218,0.421c0,0.146,0.05,0.264,0.15,0.354
	c0.099,0.09,0.253,0.162,0.46,0.215l0.505,0.126c0.28,0.069,0.49,0.179,0.63,0.329c0.141,0.15,0.21,0.338,0.21,0.565
	c0,0.191-0.052,0.361-0.157,0.51c-0.104,0.148-0.25,0.265-0.436,0.35c-0.187,0.084-0.403,0.127-0.648,0.127
	c-0.326,0-0.596-0.075-0.808-0.224c-0.212-0.15-0.348-0.366-0.407-0.648l0.373-0.093c0.047,0.202,0.142,0.354,0.281,0.457
	c0.141,0.103,0.324,0.155,0.555,0.155c0.256,0,0.462-0.059,0.616-0.176c0.154-0.117,0.231-0.264,0.231-0.44
	c0-0.137-0.045-0.252-0.136-0.346c-0.089-0.093-0.226-0.162-0.409-0.206l-0.547-0.132c-0.29-0.071-0.505-0.183-0.644-0.336
	c-0.14-0.153-0.209-0.343-0.209-0.57c0-0.187,0.049-0.351,0.15-0.493s0.238-0.253,0.414-0.335c0.176-0.081,0.376-0.121,0.601-0.121
	c0.306,0,0.551,0.07,0.734,0.21C82.431,50.869,82.563,51.063,82.645,51.308z M84.582,50.564v0.342l-1.595,0v-0.342H84.582z
	 M83.485,49.752h0.39v3.317c0,0.141,0.024,0.252,0.072,0.332c0.047,0.08,0.11,0.137,0.187,0.17c0.077,0.033,0.159,0.05,0.246,0.05
	c0.05,0,0.094-0.004,0.131-0.01s0.068-0.014,0.095-0.021l0.083,0.355c-0.038,0.015-0.084,0.029-0.14,0.041s-0.124,0.019-0.205,0.019
	c-0.142,0-0.279-0.032-0.41-0.095c-0.132-0.063-0.239-0.157-0.323-0.282c-0.084-0.125-0.127-0.28-0.127-0.466V49.752z
	 M86.714,53.954l0-4.52h1.504c0.29,0,0.532,0.052,0.726,0.155c0.194,0.103,0.34,0.244,0.437,0.421
	c0.096,0.178,0.146,0.38,0.146,0.607c0,0.188-0.031,0.35-0.093,0.484c-0.063,0.134-0.148,0.242-0.255,0.324
	c-0.107,0.082-0.227,0.142-0.36,0.179v0.035c0.144,0.01,0.283,0.061,0.419,0.153c0.135,0.092,0.245,0.221,0.333,0.385
	s0.131,0.362,0.131,0.591c0,0.229-0.05,0.431-0.15,0.61c-0.1,0.179-0.254,0.319-0.461,0.422c-0.207,0.102-0.469,0.153-0.789,0.153
	H86.714z M87.121,51.476h1.134c0.176,0,0.33-0.037,0.462-0.111c0.132-0.073,0.235-0.175,0.308-0.304
	c0.074-0.13,0.112-0.277,0.112-0.444c0-0.24-0.077-0.435-0.231-0.586s-0.383-0.226-0.688-0.226h-1.097V51.476z M87.121,53.584h1.18
	c0.344,0,0.598-0.077,0.762-0.232c0.165-0.154,0.247-0.349,0.247-0.583c0-0.172-0.041-0.328-0.123-0.469
	c-0.082-0.141-0.198-0.252-0.347-0.335c-0.149-0.082-0.323-0.124-0.523-0.124h-1.197V53.584z M91.678,54.025
	c-0.312,0-0.582-0.074-0.81-0.222c-0.228-0.148-0.404-0.353-0.527-0.616c-0.125-0.263-0.187-0.565-0.187-0.908
	c0-0.341,0.062-0.645,0.187-0.91c0.124-0.266,0.295-0.474,0.515-0.625s0.474-0.226,0.763-0.226c0.181,0,0.356,0.033,0.524,0.1
	c0.168,0.067,0.319,0.169,0.454,0.306c0.134,0.138,0.24,0.311,0.318,0.519c0.078,0.208,0.118,0.454,0.118,0.738v0.194h-2.612V52.03
	l2.216,0c0-0.218-0.043-0.414-0.13-0.588c-0.086-0.175-0.206-0.312-0.36-0.414c-0.153-0.101-0.33-0.152-0.529-0.152
	c-0.212,0-0.399,0.057-0.56,0.172c-0.162,0.115-0.287,0.267-0.378,0.455c-0.091,0.188-0.137,0.394-0.139,0.618v0.207
	c0,0.269,0.046,0.504,0.139,0.705c0.091,0.2,0.223,0.356,0.393,0.467s0.371,0.165,0.603,0.165c0.159,0,0.297-0.025,0.417-0.075
	c0.12-0.05,0.221-0.118,0.302-0.202c0.082-0.084,0.145-0.178,0.186-0.279l0.369,0.122c-0.051,0.143-0.135,0.274-0.249,0.395
	c-0.116,0.121-0.259,0.217-0.431,0.29C92.099,53.989,91.902,54.025,91.678,54.025z M94.813,54.025c-0.274,0-0.514-0.074-0.72-0.221
	c-0.207-0.147-0.368-0.352-0.482-0.616c-0.116-0.263-0.174-0.57-0.174-0.92c0-0.349,0.058-0.654,0.174-0.917
	c0.115-0.262,0.276-0.467,0.484-0.613c0.207-0.146,0.449-0.22,0.724-0.22c0.203,0,0.373,0.036,0.507,0.109
	c0.135,0.073,0.243,0.163,0.324,0.271c0.081,0.107,0.145,0.211,0.189,0.313h0.035v-1.777h0.39v4.52h-0.379v-0.629H95.84
	c-0.044,0.103-0.108,0.208-0.191,0.316c-0.083,0.108-0.192,0.199-0.327,0.273C95.186,53.988,95.016,54.025,94.813,54.025z
	 M94.859,53.665c0.216,0,0.401-0.06,0.554-0.18c0.152-0.12,0.268-0.285,0.349-0.496c0.081-0.211,0.122-0.454,0.122-0.727
	c0-0.271-0.04-0.51-0.121-0.718c-0.079-0.208-0.196-0.372-0.348-0.49c-0.153-0.118-0.338-0.177-0.556-0.177
	c-0.223,0-0.412,0.061-0.565,0.184c-0.153,0.123-0.269,0.289-0.349,0.498c-0.079,0.209-0.119,0.444-0.119,0.704
	c0,0.263,0.04,0.501,0.12,0.713c0.08,0.212,0.197,0.38,0.35,0.504C94.449,53.603,94.637,53.665,94.859,53.665z"/>
</svg>
