<?xml version="1.0" encoding="iso-8859-1"?>
<!-- Generator: Adobe Illustrator 29.3.0, SVG Export Plug-In . SVG Version: 9.03 Build 55982)  -->
<svg version="1.1" id="Layer_1" xmlns="http://www.w3.org/2000/svg" xmlns:xlink="http://www.w3.org/1999/xlink" x="0px" y="0px"
	 viewBox="0 0 58.113 27.159" style="enable-background:new 0 0 58.113 27.159;" xml:space="preserve">
<path style="fill:#272469;" d="M21.354,15.52c-1.613,1.613-3.492,2.88-5.584,3.765c-2.166,0.916-4.467,1.381-6.838,1.381
	c-0.824,0-1.64-0.056-2.445-0.168v-0.581c0.803,0.115,1.619,0.174,2.445,0.174c4.539,0,8.806-1.768,12.016-4.977
	c2.394-2.394,3.985-5.377,4.639-8.621l0.584,0V6.5c-0.231,1.175-0.582,2.324-1.052,3.437C24.234,12.028,22.967,13.907,21.354,15.52z
	 M19.667,13.834c2.05-2.05,3.441-4.582,4.068-7.341h-0.591c-0.617,2.604-1.943,4.994-3.883,6.935
	c-2.759,2.759-6.427,4.279-10.329,4.279c-0.828,0-1.644-0.069-2.445-0.203v0.582c0.801,0.129,1.618,0.196,2.445,0.196
	C12.987,18.281,16.799,16.702,19.667,13.834z M18.058,12.225c1.616-1.616,2.75-3.584,3.331-5.732h-0.597
	c-0.567,1.993-1.635,3.82-3.141,5.325c-2.329,2.329-5.426,3.612-8.72,3.612c-0.83,0-1.648-0.082-2.445-0.241v0.585
	c0.797,0.152,1.615,0.231,2.445,0.231C12.379,16.005,15.62,14.663,18.058,12.225z M33.726,11.249h-2.642l-0.657,1.839h-0.83
	l2.399-6.494h0.816l2.399,6.494h-0.829L33.726,11.249z M33.477,10.552l-1.046-2.93H32.38l-1.046,2.93H33.477z M40.108,8.205
	c-0.011-0.328-0.112-0.621-0.305-0.879c-0.193-0.258-0.453-0.461-0.78-0.61c-0.327-0.15-0.701-0.223-1.122-0.223
	c-0.417,0-0.794,0.076-1.131,0.226c-0.336,0.151-0.604,0.363-0.803,0.635c-0.199,0.272-0.298,0.589-0.298,0.953
	c0,0.438,0.149,0.791,0.446,1.062c0.298,0.271,0.702,0.479,1.213,0.625l0.804,0.229c0.229,0.063,0.443,0.138,0.641,0.222
	c0.198,0.085,0.357,0.195,0.479,0.33c0.121,0.135,0.181,0.311,0.181,0.526c0,0.237-0.07,0.444-0.211,0.62
	c-0.14,0.177-0.331,0.315-0.571,0.412c-0.241,0.098-0.511,0.148-0.813,0.148c-0.26,0-0.501-0.038-0.726-0.116
	c-0.224-0.077-0.409-0.195-0.555-0.355c-0.146-0.16-0.229-0.362-0.251-0.607h-0.816c0.026,0.355,0.135,0.666,0.33,0.935
	c0.194,0.268,0.462,0.478,0.804,0.627c0.341,0.15,0.746,0.225,1.213,0.225c0.501,0,0.928-0.083,1.28-0.251
	c0.352-0.167,0.62-0.392,0.804-0.675c0.184-0.284,0.276-0.601,0.276-0.952c0-0.305-0.063-0.561-0.189-0.77
	c-0.125-0.209-0.284-0.381-0.477-0.515s-0.393-0.241-0.603-0.319c-0.21-0.077-0.399-0.139-0.57-0.183l-0.663-0.178
	c-0.121-0.032-0.254-0.074-0.399-0.126c-0.144-0.051-0.283-0.118-0.414-0.2c-0.132-0.081-0.24-0.183-0.324-0.307
	c-0.085-0.124-0.127-0.273-0.127-0.446c0-0.207,0.06-0.392,0.181-0.554c0.12-0.163,0.288-0.291,0.504-0.384
	c0.215-0.093,0.468-0.139,0.758-0.139c0.396,0,0.729,0.088,1.001,0.266c0.273,0.178,0.428,0.427,0.466,0.749H40.108z M45.988,7.731
	c-0.157-0.261-0.353-0.483-0.586-0.666c-0.234-0.183-0.496-0.323-0.787-0.418c-0.29-0.095-0.6-0.142-0.93-0.142
	c-0.557,0-1.052,0.135-1.486,0.406c-0.434,0.271-0.775,0.656-1.024,1.154c-0.249,0.499-0.373,1.09-0.373,1.776
	c0,0.685,0.124,1.276,0.373,1.775c0.249,0.499,0.59,0.883,1.024,1.154c0.434,0.271,0.929,0.406,1.486,0.406
	c0.33,0,0.64-0.047,0.93-0.142c0.291-0.095,0.552-0.234,0.787-0.417c0.233-0.183,0.429-0.406,0.586-0.668
	c0.158-0.262,0.266-0.559,0.325-0.891h-0.79c-0.047,0.224-0.129,0.422-0.244,0.594c-0.116,0.172-0.256,0.317-0.421,0.435
	c-0.165,0.117-0.347,0.205-0.547,0.264c-0.2,0.059-0.408,0.088-0.625,0.088c-0.395,0-0.753-0.098-1.073-0.297
	s-0.574-0.492-0.762-0.879c-0.188-0.387-0.283-0.862-0.283-1.423c0-0.563,0.095-1.038,0.283-1.424
	c0.188-0.387,0.442-0.68,0.762-0.879c0.32-0.198,0.678-0.297,1.073-0.297c0.217,0,0.426,0.029,0.625,0.088
	c0.2,0.059,0.382,0.148,0.547,0.264c0.165,0.118,0.305,0.262,0.421,0.433c0.116,0.171,0.197,0.37,0.244,0.596h0.79
	C46.254,8.29,46.146,7.992,45.988,7.731z M51.537,8.205c-0.011-0.328-0.112-0.621-0.305-0.879c-0.193-0.258-0.453-0.461-0.78-0.61
	c-0.327-0.15-0.701-0.223-1.122-0.223c-0.417,0-0.794,0.076-1.131,0.226c-0.336,0.151-0.604,0.363-0.803,0.635
	c-0.199,0.272-0.298,0.589-0.298,0.953c0,0.438,0.149,0.791,0.446,1.062c0.298,0.271,0.702,0.479,1.213,0.625l0.804,0.229
	c0.229,0.063,0.443,0.138,0.641,0.222c0.198,0.085,0.357,0.195,0.479,0.33c0.121,0.135,0.181,0.311,0.181,0.526
	c0,0.237-0.07,0.444-0.211,0.62c-0.14,0.177-0.331,0.315-0.571,0.412c-0.241,0.098-0.511,0.148-0.813,0.148
	c-0.26,0-0.501-0.038-0.726-0.116c-0.224-0.077-0.409-0.195-0.555-0.355c-0.146-0.16-0.229-0.362-0.251-0.607h-0.816
	c0.026,0.355,0.135,0.666,0.33,0.935c0.194,0.268,0.462,0.478,0.804,0.627c0.341,0.15,0.746,0.225,1.213,0.225
	c0.501,0,0.928-0.083,1.28-0.251c0.352-0.167,0.62-0.392,0.804-0.675c0.184-0.284,0.276-0.601,0.276-0.952
	c0-0.305-0.063-0.561-0.189-0.77c-0.125-0.209-0.284-0.381-0.477-0.515c-0.192-0.134-0.393-0.241-0.603-0.319
	c-0.21-0.077-0.399-0.139-0.57-0.183l-0.663-0.178c-0.121-0.032-0.254-0.074-0.399-0.126c-0.144-0.051-0.283-0.118-0.414-0.2
	c-0.132-0.081-0.24-0.183-0.324-0.307c-0.085-0.124-0.127-0.273-0.127-0.446c0-0.207,0.06-0.392,0.181-0.554
	c0.12-0.163,0.288-0.291,0.504-0.384c0.215-0.093,0.468-0.139,0.758-0.139c0.396,0,0.729,0.088,1.001,0.266
	c0.273,0.178,0.428,0.427,0.466,0.749H51.537z M30.967,16.578v4.019h0.394v-4.019h1.368v-0.36h-3.132v0.36H30.967z M35.422,19.068
	h-2.411c0.005,0.241,0.047,0.454,0.131,0.636c0.09,0.194,0.216,0.345,0.381,0.452c0.164,0.107,0.359,0.16,0.585,0.16
	c0.153,0,0.287-0.024,0.404-0.072c0.116-0.049,0.213-0.114,0.293-0.196c0.079-0.082,0.139-0.172,0.18-0.271l0.356,0.118
	c-0.049,0.138-0.129,0.266-0.241,0.382c-0.112,0.117-0.251,0.211-0.418,0.281c-0.166,0.071-0.358,0.106-0.574,0.106
	c-0.303,0-0.564-0.072-0.784-0.215c-0.221-0.143-0.391-0.342-0.512-0.597c-0.12-0.254-0.18-0.547-0.18-0.88
	c0-0.33,0.06-0.625,0.18-0.882c0.121-0.257,0.287-0.459,0.5-0.605c0.212-0.146,0.459-0.219,0.739-0.219
	c0.176,0,0.345,0.032,0.508,0.097c0.164,0.065,0.309,0.164,0.44,0.297c0.13,0.133,0.234,0.301,0.309,0.503
	c0.076,0.202,0.114,0.44,0.114,0.715V19.068z M35.037,18.733c0-0.211-0.042-0.401-0.126-0.57c-0.084-0.169-0.199-0.303-0.347-0.401
	c-0.149-0.098-0.32-0.147-0.514-0.147c-0.205,0-0.385,0.055-0.542,0.166c-0.156,0.111-0.277,0.258-0.366,0.44
	c-0.076,0.157-0.117,0.328-0.128,0.511H35.037z M37.77,17.472c-0.178-0.136-0.415-0.204-0.711-0.204
	c-0.218,0-0.412,0.039-0.582,0.117c-0.17,0.079-0.304,0.186-0.401,0.324c-0.097,0.138-0.145,0.297-0.145,0.478
	c0,0.219,0.067,0.403,0.202,0.552c0.134,0.148,0.343,0.256,0.624,0.325l0.529,0.128c0.177,0.043,0.309,0.109,0.396,0.2
	c0.088,0.091,0.131,0.202,0.131,0.335c0,0.171-0.075,0.313-0.224,0.426c-0.149,0.113-0.348,0.17-0.597,0.17
	c-0.223,0-0.401-0.05-0.537-0.15c-0.135-0.1-0.227-0.247-0.272-0.443l-0.361,0.09c0.057,0.273,0.189,0.483,0.394,0.628
	c0.205,0.145,0.466,0.217,0.782,0.217c0.237,0,0.447-0.041,0.628-0.123c0.18-0.082,0.321-0.195,0.422-0.339
	c0.101-0.144,0.152-0.309,0.152-0.494c0-0.22-0.067-0.402-0.203-0.547c-0.135-0.145-0.339-0.252-0.61-0.319l-0.49-0.122
	c-0.2-0.052-0.349-0.121-0.446-0.209c-0.096-0.088-0.145-0.202-0.145-0.343c0-0.167,0.071-0.303,0.211-0.408
	c0.141-0.106,0.321-0.158,0.54-0.158c0.146,0,0.269,0.023,0.368,0.071c0.099,0.047,0.18,0.11,0.241,0.19
	c0.062,0.08,0.11,0.169,0.143,0.267l0.345-0.098C38.077,17.796,37.948,17.609,37.77,17.472z M40.055,20.245
	c-0.026,0.007-0.057,0.014-0.092,0.02c-0.035,0.006-0.078,0.01-0.127,0.01c-0.085,0-0.164-0.016-0.238-0.048
	c-0.075-0.032-0.135-0.087-0.181-0.165c-0.047-0.077-0.07-0.185-0.07-0.322v-2.095h0.685v-0.331h-0.685v-0.787h-0.378v0.787h-0.483
	v0.331h0.483v2.185c0,0.18,0.041,0.33,0.123,0.451c0.082,0.121,0.186,0.212,0.313,0.273c0.127,0.061,0.26,0.092,0.397,0.092
	c0.079,0,0.145-0.006,0.199-0.018c0.054-0.012,0.098-0.025,0.135-0.04L40.055,20.245z M43.635,20.597
	c0.309,0,0.563-0.05,0.764-0.148c0.2-0.099,0.349-0.236,0.447-0.409c0.096-0.173,0.145-0.37,0.145-0.591
	c0-0.222-0.042-0.413-0.127-0.573c-0.085-0.16-0.192-0.284-0.322-0.373c-0.131-0.089-0.267-0.139-0.406-0.148v-0.034
	c0.128-0.036,0.244-0.093,0.348-0.173c0.104-0.08,0.186-0.185,0.247-0.314c0.06-0.13,0.091-0.286,0.091-0.469
	c0-0.219-0.048-0.415-0.141-0.588c-0.094-0.172-0.236-0.309-0.423-0.408c-0.188-0.1-0.422-0.15-0.704-0.15h-1.457v4.379H43.635z
	 M42.492,16.578h1.063c0.296,0,0.518,0.073,0.667,0.219c0.149,0.146,0.224,0.335,0.224,0.567c0,0.162-0.036,0.305-0.108,0.43
	c-0.071,0.125-0.171,0.224-0.299,0.295c-0.128,0.072-0.277,0.107-0.448,0.107h-1.099V16.578z M42.492,18.551h1.16
	c0.194,0,0.363,0.04,0.507,0.12c0.144,0.08,0.256,0.188,0.336,0.324c0.079,0.136,0.119,0.288,0.119,0.454
	c0,0.227-0.08,0.415-0.239,0.564c-0.16,0.15-0.406,0.225-0.739,0.225h-1.144V18.551z M48.22,19.068H45.81
	c0.005,0.241,0.048,0.454,0.132,0.636c0.089,0.194,0.216,0.345,0.381,0.452c0.164,0.107,0.359,0.16,0.584,0.16
	c0.154,0,0.288-0.024,0.404-0.072c0.116-0.049,0.214-0.114,0.293-0.196c0.08-0.082,0.14-0.172,0.18-0.271l0.357,0.118
	c-0.05,0.138-0.13,0.266-0.241,0.382c-0.112,0.117-0.251,0.211-0.418,0.281c-0.167,0.071-0.358,0.106-0.575,0.106
	c-0.303,0-0.563-0.072-0.784-0.215c-0.221-0.143-0.391-0.342-0.511-0.597c-0.121-0.254-0.181-0.547-0.181-0.88
	c0-0.33,0.06-0.625,0.181-0.882c0.12-0.257,0.286-0.459,0.499-0.605c0.213-0.146,0.459-0.219,0.74-0.219
	c0.175,0,0.345,0.032,0.508,0.097c0.163,0.065,0.309,0.164,0.44,0.297c0.129,0.133,0.233,0.301,0.308,0.503
	c0.076,0.202,0.114,0.44,0.114,0.715V19.068z M47.837,18.733c0-0.211-0.042-0.401-0.126-0.57c-0.084-0.169-0.2-0.303-0.348-0.401
	c-0.148-0.098-0.319-0.147-0.513-0.147c-0.205,0-0.386,0.055-0.542,0.166c-0.157,0.111-0.278,0.258-0.366,0.44
	c-0.076,0.157-0.118,0.328-0.129,0.511H47.837z M50.436,20.559c0.131-0.072,0.236-0.159,0.317-0.264
	c0.08-0.105,0.142-0.207,0.185-0.307h0.045v0.609h0.367v-4.379h-0.378v1.721h-0.034c-0.043-0.098-0.104-0.2-0.183-0.303
	c-0.079-0.104-0.184-0.192-0.314-0.262c-0.13-0.071-0.295-0.106-0.491-0.106c-0.267,0-0.501,0.071-0.702,0.213
	c-0.201,0.142-0.358,0.34-0.469,0.594c-0.112,0.254-0.168,0.551-0.168,0.889c0,0.339,0.056,0.636,0.168,0.891
	c0.111,0.255,0.267,0.454,0.467,0.597c0.2,0.143,0.432,0.214,0.698,0.214C50.14,20.666,50.305,20.63,50.436,20.559z M49.443,20.137
	c-0.148-0.12-0.261-0.283-0.339-0.489c-0.077-0.205-0.116-0.436-0.116-0.69c0-0.253,0.038-0.48,0.115-0.682
	c0.077-0.202,0.19-0.363,0.338-0.482c0.148-0.119,0.331-0.178,0.547-0.178c0.211,0,0.39,0.057,0.538,0.172
	c0.147,0.115,0.26,0.273,0.337,0.475c0.078,0.201,0.117,0.434,0.117,0.696c0,0.265-0.039,0.5-0.118,0.705
	c-0.078,0.204-0.191,0.365-0.338,0.481c-0.148,0.116-0.327,0.174-0.536,0.174C49.772,20.317,49.59,20.257,49.443,20.137z"/>
</svg>
