<?xml version="1.0" encoding="iso-8859-1"?>
<!-- Generator: Adobe Illustrator 29.3.0, SVG Export Plug-In . SVG Version: 9.03 Build 55982)  -->
<svg version="1.1" id="Layer_1" xmlns="http://www.w3.org/2000/svg" xmlns:xlink="http://www.w3.org/1999/xlink" x="0px" y="0px"
	 viewBox="0 0 35.169 47.049" style="enable-background:new 0 0 35.169 47.049;" xml:space="preserve">
<path d="M23.237,16.669c-1.815,1.815-3.928,3.239-6.281,4.235c-2.436,1.031-5.024,1.553-7.692,1.553
	c-0.927,0-1.845-0.063-2.75-0.189v-0.654c0.903,0.129,1.821,0.196,2.75,0.196c5.106,0,9.906-1.988,13.516-5.598
	c2.693-2.693,4.483-6.048,5.219-9.697h0.657v0.008c-0.259,1.322-0.654,2.614-1.184,3.866C26.476,12.741,25.051,14.854,23.237,16.669
	z M21.34,14.771c2.305-2.306,3.87-5.154,4.575-8.257H25.25c-0.694,2.929-2.186,5.618-4.368,7.8
	c-3.103,3.103-7.23,4.813-11.619,4.813c-0.931,0-1.85-0.078-2.75-0.228v0.655c0.901,0.145,1.819,0.22,2.75,0.22
	C13.825,19.773,18.114,17.997,21.34,14.771z M19.53,12.961c1.817-1.817,3.093-4.032,3.747-6.447h-0.672
	c-0.638,2.242-1.839,4.297-3.533,5.99c-2.62,2.62-6.103,4.063-9.809,4.063c-0.934,0-1.854-0.092-2.75-0.271v0.658
	c0.897,0.171,1.816,0.259,2.75,0.259C13.142,17.214,16.787,15.704,19.53,12.961z M10.655,31.083h-2.65l-0.659,1.845H6.514
	l2.406-6.515h0.819l2.406,6.515h-0.831L10.655,31.083z M10.405,30.383l-1.05-2.94H9.305l-1.05,2.94H10.405z M17.058,28.029
	c-0.011-0.329-0.112-0.623-0.305-0.882c-0.194-0.259-0.455-0.463-0.783-0.612c-0.328-0.15-0.703-0.224-1.126-0.224
	c-0.418,0-0.797,0.076-1.135,0.227c-0.337,0.152-0.606,0.364-0.806,0.637c-0.199,0.273-0.299,0.591-0.299,0.956
	c0,0.439,0.149,0.794,0.447,1.066c0.299,0.272,0.704,0.48,1.216,0.627l0.807,0.23c0.23,0.063,0.445,0.138,0.643,0.222
	c0.198,0.085,0.359,0.196,0.48,0.331s0.182,0.312,0.182,0.528c0,0.238-0.07,0.445-0.211,0.622c-0.141,0.177-0.332,0.316-0.573,0.413
	c-0.241,0.099-0.513,0.148-0.816,0.148c-0.261,0-0.503-0.038-0.728-0.116c-0.225-0.077-0.411-0.196-0.557-0.356
	c-0.146-0.16-0.23-0.363-0.252-0.609h-0.819c0.026,0.356,0.135,0.669,0.331,0.938c0.195,0.269,0.464,0.479,0.807,0.629
	c0.342,0.151,0.748,0.226,1.217,0.226c0.503,0,0.931-0.083,1.284-0.252c0.353-0.167,0.622-0.393,0.807-0.677
	c0.185-0.284,0.277-0.603,0.277-0.955c0-0.305-0.063-0.562-0.189-0.773c-0.125-0.209-0.285-0.382-0.478-0.517
	c-0.193-0.134-0.394-0.241-0.605-0.32c-0.21-0.078-0.401-0.14-0.572-0.184l-0.665-0.178c-0.122-0.032-0.255-0.074-0.401-0.126
	c-0.145-0.051-0.284-0.118-0.415-0.2c-0.133-0.081-0.241-0.184-0.325-0.308c-0.085-0.124-0.127-0.273-0.127-0.447
	c0-0.208,0.06-0.393,0.181-0.556c0.121-0.164,0.289-0.292,0.506-0.385c0.216-0.093,0.469-0.14,0.76-0.14
	c0.397,0,0.732,0.089,1.004,0.267c0.273,0.178,0.429,0.428,0.467,0.751H17.058z M22.956,27.553
	c-0.157-0.262-0.354-0.485-0.588-0.668c-0.235-0.184-0.498-0.324-0.789-0.419c-0.291-0.095-0.602-0.143-0.933-0.143
	c-0.559,0-1.055,0.135-1.491,0.407s-0.777,0.658-1.027,1.158c-0.25,0.5-0.374,1.094-0.374,1.782c0,0.687,0.124,1.28,0.374,1.781
	c0.25,0.5,0.592,0.886,1.027,1.158s0.932,0.407,1.491,0.407c0.331,0,0.642-0.048,0.933-0.143c0.292-0.095,0.554-0.235,0.789-0.418
	c0.234-0.184,0.431-0.407,0.588-0.67c0.158-0.262,0.267-0.561,0.327-0.894H22.49c-0.048,0.225-0.129,0.423-0.245,0.596
	c-0.116,0.173-0.257,0.318-0.423,0.436c-0.166,0.117-0.348,0.206-0.549,0.265c-0.2,0.059-0.41,0.089-0.627,0.089
	c-0.396,0-0.755-0.099-1.077-0.298c-0.321-0.199-0.576-0.494-0.765-0.882c-0.188-0.388-0.284-0.864-0.284-1.428
	c0-0.564,0.095-1.041,0.284-1.429c0.188-0.388,0.444-0.682,0.765-0.882c0.321-0.198,0.68-0.298,1.077-0.298
	c0.218,0,0.427,0.029,0.627,0.089s0.383,0.148,0.549,0.265c0.166,0.118,0.306,0.262,0.423,0.434s0.198,0.371,0.245,0.598h0.793
	C23.223,28.114,23.115,27.815,22.956,27.553z M28.523,28.029c-0.011-0.329-0.112-0.623-0.305-0.882
	c-0.194-0.259-0.455-0.463-0.783-0.612c-0.328-0.15-0.703-0.224-1.126-0.224c-0.418,0-0.797,0.076-1.135,0.227
	c-0.337,0.152-0.606,0.364-0.806,0.637c-0.199,0.273-0.299,0.591-0.299,0.956c0,0.439,0.149,0.794,0.447,1.066
	c0.299,0.272,0.704,0.48,1.216,0.627l0.807,0.23c0.23,0.063,0.445,0.138,0.643,0.222c0.198,0.085,0.359,0.196,0.48,0.331
	c0.122,0.135,0.182,0.312,0.182,0.528c0,0.238-0.07,0.445-0.211,0.622c-0.141,0.177-0.332,0.316-0.573,0.413
	c-0.241,0.099-0.513,0.148-0.816,0.148c-0.261,0-0.503-0.038-0.728-0.116c-0.225-0.077-0.411-0.196-0.557-0.356
	c-0.146-0.16-0.23-0.363-0.252-0.609H23.89c0.026,0.356,0.135,0.669,0.331,0.938c0.195,0.269,0.464,0.479,0.807,0.629
	c0.342,0.151,0.748,0.226,1.217,0.226c0.503,0,0.931-0.083,1.284-0.252c0.353-0.167,0.622-0.393,0.807-0.677
	c0.185-0.284,0.277-0.603,0.277-0.955c0-0.305-0.063-0.562-0.189-0.773c-0.125-0.209-0.285-0.382-0.478-0.517
	c-0.193-0.134-0.394-0.241-0.605-0.32c-0.21-0.078-0.401-0.14-0.572-0.184l-0.665-0.178c-0.122-0.032-0.255-0.074-0.401-0.126
	c-0.145-0.051-0.284-0.118-0.415-0.2c-0.133-0.081-0.241-0.184-0.325-0.308c-0.085-0.124-0.127-0.273-0.127-0.447
	c0-0.208,0.06-0.393,0.181-0.556c0.121-0.164,0.289-0.292,0.506-0.385c0.216-0.093,0.469-0.14,0.76-0.14
	c0.397,0,0.732,0.089,1.004,0.267c0.273,0.178,0.429,0.428,0.467,0.751H28.523z M7.888,36.429v4.032h0.395v-4.032h1.373v-0.361
	H6.514v0.361H7.888z M12.356,38.927H9.94c0.005,0.241,0.045,0.456,0.13,0.639c0.09,0.195,0.217,0.346,0.382,0.454
	s0.36,0.161,0.587,0.161c0.153,0,0.288-0.024,0.405-0.073c0.116-0.049,0.214-0.114,0.294-0.196c0.079-0.082,0.14-0.173,0.181-0.271
	l0.357,0.118c-0.049,0.139-0.13,0.267-0.242,0.384c-0.112,0.118-0.252,0.211-0.419,0.282s-0.359,0.106-0.576,0.106
	c-0.304,0-0.566-0.072-0.787-0.216c-0.222-0.144-0.392-0.343-0.514-0.599c-0.12-0.255-0.181-0.549-0.181-0.883
	c0-0.331,0.061-0.627,0.181-0.885c0.121-0.258,0.288-0.461,0.502-0.607c0.213-0.146,0.461-0.22,0.741-0.22
	c0.177,0,0.347,0.032,0.51,0.098c0.164,0.065,0.31,0.164,0.441,0.298c0.131,0.134,0.234,0.302,0.31,0.504
	c0.076,0.203,0.114,0.441,0.114,0.718V38.927z M11.971,38.591c0-0.212-0.042-0.402-0.126-0.572c-0.084-0.17-0.2-0.304-0.349-0.402
	c-0.149-0.099-0.321-0.148-0.515-0.148c-0.206,0-0.387,0.056-0.544,0.167c-0.156,0.112-0.278,0.259-0.367,0.442
	c-0.076,0.157-0.113,0.33-0.124,0.513H11.971z M14.712,37.326c-0.179-0.136-0.416-0.205-0.714-0.205
	c-0.219,0-0.413,0.039-0.584,0.118c-0.171,0.079-0.305,0.187-0.402,0.325s-0.145,0.298-0.145,0.479c0,0.22,0.067,0.405,0.203,0.554
	c0.135,0.148,0.344,0.257,0.626,0.326l0.531,0.128c0.178,0.043,0.31,0.11,0.397,0.201c0.088,0.091,0.132,0.203,0.132,0.336
	c0,0.171-0.075,0.314-0.225,0.428c-0.149,0.114-0.35,0.171-0.598,0.171c-0.224,0-0.402-0.05-0.539-0.15
	c-0.136-0.1-0.227-0.248-0.273-0.444l-0.362,0.09c0.058,0.274,0.189,0.484,0.395,0.63c0.206,0.145,0.468,0.218,0.785,0.218
	c0.238,0,0.448-0.041,0.63-0.124c0.181-0.082,0.322-0.196,0.424-0.34c0.102-0.144,0.152-0.31,0.152-0.495
	c0-0.221-0.067-0.403-0.204-0.549c-0.136-0.146-0.34-0.252-0.612-0.32l-0.491-0.122c-0.201-0.052-0.35-0.122-0.447-0.209
	s-0.145-0.203-0.145-0.344c0-0.167,0.071-0.304,0.212-0.41c0.142-0.106,0.322-0.159,0.542-0.159c0.146,0,0.269,0.023,0.369,0.071
	c0.1,0.047,0.181,0.111,0.242,0.191c0.062,0.08,0.11,0.169,0.144,0.268l0.346-0.099C15.02,37.651,14.891,37.463,14.712,37.326z
	 M17.005,40.107c-0.026,0.007-0.058,0.014-0.093,0.02c-0.035,0.006-0.078,0.01-0.127,0.01c-0.085,0-0.164-0.016-0.239-0.048
	c-0.075-0.032-0.136-0.087-0.182-0.165c-0.047-0.078-0.07-0.185-0.07-0.323v-2.102h0.687v-0.332h-0.687v-0.789h-0.379v0.789h-0.484
	v0.332h0.484v2.192c0,0.18,0.041,0.331,0.123,0.452c0.082,0.122,0.186,0.213,0.314,0.274c0.127,0.062,0.261,0.092,0.398,0.092
	c0.079,0,0.145-0.006,0.199-0.018c0.054-0.012,0.099-0.025,0.136-0.04L17.005,40.107z M20.596,40.461c0.31,0,0.565-0.05,0.766-0.149
	c0.201-0.1,0.35-0.236,0.448-0.41c0.097-0.174,0.145-0.371,0.145-0.593c0-0.223-0.042-0.414-0.127-0.575s-0.192-0.285-0.323-0.374
	c-0.132-0.089-0.268-0.139-0.407-0.149v-0.034c0.129-0.036,0.245-0.094,0.35-0.174c0.104-0.08,0.186-0.186,0.248-0.315
	c0.061-0.13,0.091-0.287,0.091-0.47c0-0.22-0.048-0.416-0.142-0.59c-0.095-0.173-0.236-0.309-0.425-0.41
	c-0.188-0.1-0.424-0.15-0.706-0.15h-1.462v4.393H20.596z M19.449,36.429h1.066c0.297,0,0.519,0.073,0.669,0.22
	c0.149,0.146,0.225,0.336,0.225,0.569c0,0.162-0.036,0.306-0.108,0.432c-0.071,0.125-0.172,0.225-0.3,0.296
	c-0.129,0.072-0.278,0.107-0.449,0.107h-1.102V36.429z M19.449,38.408h1.164c0.194,0,0.364,0.04,0.509,0.12
	c0.144,0.08,0.257,0.188,0.337,0.325c0.079,0.137,0.119,0.289,0.119,0.455c0,0.227-0.08,0.416-0.24,0.566
	c-0.16,0.15-0.407,0.226-0.741,0.226h-1.147V38.408z M25.196,38.927H22.78c0.005,0.241,0.046,0.456,0.13,0.639
	c0.089,0.195,0.217,0.346,0.382,0.454s0.36,0.161,0.586,0.161c0.154,0,0.289-0.024,0.405-0.073c0.116-0.049,0.215-0.114,0.294-0.196
	c0.08-0.082,0.141-0.173,0.181-0.271l0.358,0.118c-0.05,0.139-0.131,0.267-0.242,0.384c-0.112,0.118-0.252,0.211-0.419,0.282
	c-0.168,0.071-0.359,0.106-0.577,0.106c-0.304,0-0.565-0.072-0.787-0.216c-0.222-0.144-0.393-0.343-0.513-0.599
	c-0.121-0.255-0.182-0.549-0.182-0.883c0-0.331,0.061-0.627,0.182-0.885c0.12-0.258,0.287-0.461,0.501-0.607
	c0.214-0.146,0.461-0.22,0.742-0.22c0.176,0,0.346,0.032,0.51,0.098c0.163,0.065,0.31,0.164,0.441,0.298
	c0.13,0.134,0.233,0.302,0.309,0.504c0.076,0.203,0.114,0.441,0.114,0.718V38.927z M24.811,38.591c0-0.212-0.042-0.402-0.126-0.572
	c-0.084-0.17-0.2-0.304-0.35-0.402c-0.148-0.099-0.32-0.148-0.515-0.148c-0.206,0-0.388,0.056-0.544,0.167
	c-0.157,0.112-0.279,0.259-0.367,0.442c-0.076,0.157-0.113,0.33-0.125,0.513H24.811z M27.419,40.422
	c0.132-0.072,0.237-0.16,0.318-0.265c0.08-0.105,0.143-0.207,0.185-0.308h0.045v0.611h0.368v-4.393h-0.379v1.727h-0.034
	c-0.043-0.099-0.104-0.2-0.184-0.304c-0.079-0.104-0.185-0.192-0.315-0.263c-0.131-0.071-0.296-0.106-0.493-0.106
	c-0.268,0-0.503,0.071-0.704,0.213c-0.202,0.142-0.359,0.341-0.471,0.596c-0.112,0.255-0.169,0.553-0.169,0.891
	c0,0.34,0.057,0.639,0.169,0.894c0.111,0.256,0.268,0.455,0.469,0.598c0.2,0.143,0.433,0.215,0.7,0.215
	C27.122,40.53,27.287,40.494,27.419,40.422z M26.422,39.999c-0.148-0.121-0.262-0.284-0.34-0.49
	c-0.077-0.206-0.116-0.437-0.116-0.693c0-0.253,0.038-0.481,0.115-0.684c0.077-0.203,0.19-0.364,0.339-0.484
	c0.148-0.119,0.332-0.179,0.549-0.179c0.212,0,0.392,0.058,0.54,0.172c0.147,0.115,0.261,0.274,0.338,0.476
	c0.078,0.202,0.117,0.435,0.117,0.698c0,0.266-0.039,0.501-0.118,0.707c-0.078,0.205-0.191,0.366-0.339,0.482
	c-0.148,0.117-0.328,0.175-0.538,0.175C26.753,40.18,26.57,40.12,26.422,39.999z"/>
</svg>
