<?xml version="1.0" encoding="iso-8859-1"?>
<!-- Generator: Adobe Illustrator 29.3.0, SVG Export Plug-In . SVG Version: 9.03 Build 55982)  -->
<svg version="1.1" id="Layer_1" xmlns="http://www.w3.org/2000/svg" xmlns:xlink="http://www.w3.org/1999/xlink" x="0px" y="0px"
	 viewBox="0 0 65.197 133.228" style="enable-background:new 0 0 65.197 133.228;" xml:space="preserve">
<rect x="0" y="0" style="fill:none;stroke:#B3B3B3;stroke-width:0.15;stroke-miterlimit:10;" width="65.197" height="65.197"/>
<path style="fill:#272469;" d="M47.67,38.467c-4.839,4.839-10.474,8.638-16.749,11.292C24.424,52.507,17.523,53.9,10.41,53.9
	c-2.472,0-4.919-0.169-7.332-0.504l0-1.743c2.408,0.345,4.856,0.522,7.332,0.522c13.615,0,26.414-5.302,36.041-14.929
	c7.18-7.181,11.953-16.127,13.916-25.859l1.752,0v0.021c-0.691,3.525-1.745,6.97-3.157,10.308
	C56.309,27.992,52.509,33.627,47.67,38.467z M42.611,33.408c6.148-6.148,10.32-13.744,12.201-22.019H53.04
	c-1.85,7.812-5.828,14.981-11.648,20.8c-8.276,8.276-19.279,12.833-30.982,12.833c-2.482,0-4.932-0.207-7.332-0.609l0,1.747
	c2.402,0.387,4.852,0.587,7.332,0.587C22.574,46.746,34.01,42.009,42.611,33.408z M37.785,28.581
	c4.846-4.846,8.247-10.751,9.992-17.193h-1.791c-1.702,5.978-4.904,11.457-9.42,15.974C29.579,34.348,20.29,38.196,10.41,38.196
	c-2.491,0-4.944-0.245-7.332-0.723l0,1.756c2.392,0.456,4.844,0.692,7.332,0.692C20.751,39.92,30.473,35.893,37.785,28.581z"/>
<rect x="0" y="68.032" style="fill:none;stroke:#B3B3B3;stroke-width:0.15;stroke-miterlimit:10;" width="65.197" height="65.197"/>
<path style="fill:#272469;" d="M8.501,84.916h0.94l-2.719-7.507H5.797l-2.719,7.507h0.94l0.745-2.126h2.994L8.501,84.916z
	 M5.045,81.983l1.186-3.387h0.058l1.186,3.387H5.045z M9.749,77.409l2.198,6.32h0.087l2.198-6.32h0.94l-2.719,7.507h-0.925
	l-2.719-7.507H9.749z M15.871,84.916v-7.507h4.468v0.806h-3.572v2.537h3.341v0.806h-3.341v2.552h3.63v0.806H15.871z M22.399,77.409
	v7.507h-0.897v-7.507H22.399z M29.041,84.916l-1.673-3.096c0.105-0.036,0.204-0.079,0.296-0.127
	c0.369-0.194,0.643-0.463,0.821-0.805c0.178-0.342,0.268-0.735,0.268-1.177c0-0.442-0.089-0.837-0.268-1.184
	c-0.178-0.347-0.453-0.62-0.825-0.82c-0.371-0.199-0.846-0.298-1.424-0.298h-2.502v7.507h0.897v-2.932h1.62
	c0.065,0,0.124-0.006,0.186-0.008l1.563,2.941H29.041z M24.63,78.215h1.576c0.4,0,0.722,0.062,0.965,0.185
	c0.243,0.123,0.421,0.297,0.531,0.522c0.111,0.225,0.166,0.487,0.166,0.788c0,0.3-0.055,0.559-0.165,0.776
	c-0.109,0.216-0.286,0.383-0.528,0.5c-0.242,0.117-0.561,0.176-0.956,0.176H24.63V78.215z M36.03,81.162
	c0,0.792-0.141,1.476-0.423,2.053c-0.282,0.577-0.669,1.022-1.161,1.334c-0.492,0.313-1.053,0.47-1.685,0.47
	c-0.632,0-1.193-0.157-1.685-0.47c-0.492-0.312-0.878-0.757-1.161-1.334c-0.282-0.577-0.423-1.261-0.423-2.053
	s0.141-1.476,0.423-2.052c0.282-0.577,0.669-1.022,1.161-1.335c0.492-0.313,1.053-0.469,1.685-0.469
	c0.631,0,1.193,0.156,1.685,0.469c0.492,0.313,0.878,0.758,1.161,1.335C35.889,79.686,36.03,80.37,36.03,81.162z M35.163,81.162
	c0-0.65-0.107-1.198-0.32-1.646c-0.213-0.447-0.501-0.786-0.864-1.015c-0.363-0.23-0.769-0.345-1.217-0.345
	c-0.449,0-0.854,0.115-1.217,0.345c-0.363,0.229-0.651,0.568-0.864,1.015c-0.213,0.448-0.32,0.996-0.32,1.646
	c0,0.65,0.107,1.199,0.32,1.646c0.213,0.448,0.501,0.786,0.864,1.016c0.362,0.229,0.768,0.345,1.217,0.345
	c0.448,0,0.854-0.115,1.217-0.345c0.362-0.23,0.651-0.568,0.864-1.016C35.056,82.361,35.163,81.812,35.163,81.162z M7.445,89.418
	c-0.044-0.371-0.22-0.66-0.528-0.865c-0.308-0.205-0.687-0.308-1.135-0.308c-0.328,0-0.615,0.054-0.859,0.162
	c-0.245,0.108-0.435,0.255-0.571,0.443c-0.136,0.188-0.205,0.402-0.205,0.642c0,0.2,0.048,0.372,0.143,0.515
	c0.095,0.143,0.218,0.261,0.367,0.355c0.149,0.094,0.306,0.171,0.47,0.231c0.164,0.06,0.315,0.108,0.452,0.145l0.752,0.205
	c0.193,0.051,0.408,0.122,0.645,0.213c0.238,0.09,0.465,0.213,0.683,0.368c0.218,0.155,0.399,0.354,0.541,0.596
	c0.142,0.242,0.213,0.539,0.213,0.891c0,0.406-0.104,0.772-0.313,1.1c-0.208,0.327-0.512,0.588-0.911,0.78
	c-0.399,0.193-0.883,0.29-1.451,0.29c-0.53,0-0.989-0.087-1.376-0.26c-0.387-0.173-0.691-0.416-0.911-0.726
	c-0.221-0.31-0.345-0.671-0.374-1.081h0.926c0.024,0.284,0.118,0.518,0.284,0.702c0.165,0.184,0.375,0.321,0.629,0.41
	c0.254,0.089,0.528,0.134,0.822,0.134c0.342,0,0.65-0.057,0.922-0.17c0.273-0.114,0.488-0.273,0.647-0.477
	c0.159-0.204,0.239-0.443,0.239-0.717c0-0.249-0.069-0.452-0.206-0.608c-0.137-0.157-0.318-0.284-0.542-0.381
	c-0.224-0.098-0.466-0.184-0.727-0.257L5.16,91.486c-0.578-0.169-1.037-0.409-1.374-0.722c-0.338-0.312-0.506-0.722-0.506-1.228
	c0-0.42,0.113-0.787,0.338-1.101c0.225-0.314,0.529-0.558,0.911-0.733c0.382-0.175,0.809-0.262,1.282-0.262
	c0.477,0,0.902,0.086,1.273,0.259s0.666,0.408,0.884,0.706c0.218,0.298,0.333,0.637,0.345,1.015H7.445z M9.431,87.542h1.07
	l2.516,6.231h0.087l2.517-6.231h1.07v7.507h-0.839v-5.704H15.78l-2.314,5.704h-0.81l-2.314-5.704H10.27v5.704H9.431V87.542z
	 M22.813,95.049h0.94l-2.719-7.507h-0.925l-2.719,7.507h0.94l0.745-2.126h2.994L22.813,95.049z M19.357,92.117l1.186-3.387H20.6
	l1.186,3.387H19.357z M29.759,95.049l-1.673-3.096c0.105-0.036,0.204-0.079,0.296-0.128c0.369-0.194,0.643-0.463,0.821-0.805
	c0.178-0.342,0.268-0.735,0.268-1.177s-0.089-0.837-0.268-1.184c-0.178-0.347-0.453-0.62-0.825-0.82
	c-0.371-0.199-0.846-0.298-1.424-0.298h-2.502v7.507h0.897v-2.932h1.62c0.065,0,0.124-0.006,0.186-0.008l1.563,2.941H29.759z
	 M25.348,88.348h1.576c0.4,0,0.722,0.062,0.965,0.185c0.243,0.123,0.421,0.297,0.531,0.522c0.111,0.225,0.166,0.487,0.166,0.788
	c0,0.301-0.055,0.559-0.165,0.776c-0.109,0.216-0.286,0.383-0.528,0.5c-0.242,0.117-0.561,0.176-0.956,0.176h-1.591V88.348z
	 M30.097,88.348v-0.806h5.553v0.806h-2.328v6.701h-0.897v-6.701H30.097z M9.325,100.05H8.428c-0.053-0.262-0.145-0.491-0.276-0.689
	c-0.131-0.198-0.291-0.365-0.477-0.5c-0.187-0.136-0.394-0.238-0.62-0.306c-0.226-0.068-0.463-0.103-0.708-0.103
	c-0.449,0-0.854,0.115-1.217,0.345c-0.363,0.229-0.651,0.568-0.864,1.015c-0.213,0.448-0.32,0.996-0.32,1.646
	c0,0.65,0.107,1.199,0.32,1.646c0.213,0.448,0.501,0.786,0.864,1.016c0.362,0.229,0.768,0.345,1.217,0.345
	c0.246,0,0.482-0.034,0.708-0.103c0.227-0.068,0.434-0.171,0.62-0.306c0.186-0.136,0.346-0.303,0.477-0.502s0.224-0.428,0.276-0.687
	h0.897c-0.067,0.383-0.19,0.727-0.369,1.03c-0.178,0.303-0.4,0.56-0.665,0.771c-0.265,0.212-0.562,0.372-0.891,0.482
	c-0.329,0.11-0.68,0.165-1.053,0.165c-0.632,0-1.193-0.157-1.685-0.47c-0.492-0.312-0.878-0.757-1.161-1.334
	c-0.282-0.577-0.423-1.261-0.423-2.053s0.141-1.476,0.423-2.052c0.282-0.577,0.669-1.022,1.161-1.335
	c0.492-0.313,1.053-0.469,1.685-0.469c0.373,0,0.725,0.055,1.053,0.165c0.329,0.11,0.626,0.271,0.891,0.482
	c0.265,0.212,0.487,0.468,0.665,0.77C9.135,99.32,9.258,99.664,9.325,100.05z M16.561,101.458c0,0.792-0.141,1.476-0.423,2.053
	c-0.282,0.577-0.669,1.022-1.161,1.334c-0.492,0.313-1.053,0.47-1.685,0.47c-0.632,0-1.193-0.157-1.685-0.47
	c-0.492-0.312-0.878-0.757-1.161-1.334c-0.282-0.577-0.423-1.261-0.423-2.053s0.141-1.476,0.423-2.052
	c0.282-0.577,0.669-1.022,1.161-1.335c0.492-0.313,1.053-0.469,1.685-0.469c0.631,0,1.193,0.156,1.685,0.469
	c0.492,0.313,0.878,0.758,1.161,1.335C16.42,99.982,16.561,100.666,16.561,101.458z M15.693,101.458c0-0.65-0.107-1.198-0.32-1.646
	c-0.213-0.447-0.501-0.786-0.864-1.015c-0.363-0.23-0.769-0.345-1.217-0.345c-0.449,0-0.854,0.115-1.217,0.345
	c-0.363,0.229-0.651,0.568-0.864,1.015c-0.213,0.448-0.32,0.996-0.32,1.646c0,0.65,0.107,1.199,0.32,1.646
	c0.213,0.448,0.501,0.786,0.864,1.016c0.362,0.229,0.768,0.345,1.217,0.345c0.448,0,0.854-0.115,1.217-0.345
	c0.362-0.23,0.651-0.568,0.864-1.016C15.586,102.656,15.693,102.108,15.693,101.458z M23.478,97.704v7.507H22.61l-4.035-5.895
	h-0.072v5.895h-0.897v-7.507h0.868l4.049,5.909h0.072v-5.909H23.478z M30.685,97.704v7.507h-0.868l-4.035-5.895H25.71v5.895h-0.897
	v-7.507h0.868l4.049,5.909h0.072v-5.909H30.685z M32.02,105.211v-7.507h4.469v0.806h-3.572v2.537h3.341v0.806h-3.341v2.552h3.63
	v0.806H32.02z M43.608,100.05h-0.897c-0.053-0.262-0.145-0.491-0.276-0.689c-0.131-0.198-0.291-0.365-0.477-0.5
	c-0.187-0.136-0.394-0.238-0.62-0.306c-0.226-0.068-0.463-0.103-0.708-0.103c-0.449,0-0.854,0.115-1.217,0.345
	c-0.363,0.229-0.651,0.568-0.864,1.015c-0.213,0.448-0.32,0.996-0.32,1.646c0,0.65,0.107,1.199,0.32,1.646
	c0.213,0.448,0.501,0.786,0.864,1.016c0.362,0.229,0.768,0.345,1.217,0.345c0.246,0,0.482-0.034,0.708-0.103
	c0.227-0.068,0.434-0.171,0.62-0.306c0.186-0.136,0.346-0.303,0.477-0.502c0.131-0.199,0.224-0.428,0.276-0.687h0.897
	c-0.067,0.383-0.19,0.727-0.369,1.03c-0.178,0.303-0.4,0.56-0.665,0.771c-0.265,0.212-0.562,0.372-0.891,0.482
	c-0.329,0.11-0.68,0.165-1.053,0.165c-0.632,0-1.193-0.157-1.685-0.47c-0.492-0.312-0.878-0.757-1.161-1.334
	c-0.282-0.577-0.423-1.261-0.423-2.053s0.141-1.476,0.423-2.052c0.282-0.577,0.669-1.022,1.161-1.335
	c0.492-0.313,1.053-0.469,1.685-0.469c0.373,0,0.725,0.055,1.053,0.165c0.329,0.11,0.626,0.271,0.891,0.482
	c0.265,0.212,0.487,0.468,0.665,0.77C43.418,99.32,43.541,99.664,43.608,100.05z M44.191,98.51v-0.806h5.553v0.806h-2.328v6.701
	H46.52V98.51H44.191z M50.675,105.211v-7.507h4.468v0.806h-3.572v2.537h3.341v0.806h-3.341v2.552h3.63v0.806H50.675z
	 M58.591,105.211h-2.285v-7.507h2.386c0.718,0,1.332,0.15,1.844,0.449c0.511,0.299,0.903,0.729,1.175,1.287
	c0.273,0.558,0.409,1.226,0.409,2.003c0,0.782-0.137,1.455-0.413,2.018c-0.275,0.563-0.675,0.996-1.2,1.297
	C59.981,105.061,59.342,105.211,58.591,105.211z M57.202,104.405h1.33c0.612,0,1.12-0.12,1.522-0.359
	c0.403-0.24,0.703-0.581,0.9-1.023c0.198-0.443,0.296-0.969,0.296-1.58c0-0.606-0.097-1.128-0.292-1.567
	c-0.195-0.438-0.487-0.776-0.875-1.011c-0.388-0.236-0.871-0.354-1.45-0.354h-1.432V104.405z M7.445,109.714
	c-0.044-0.371-0.22-0.66-0.528-0.865c-0.308-0.205-0.687-0.308-1.135-0.308c-0.328,0-0.615,0.054-0.859,0.162
	c-0.245,0.108-0.435,0.255-0.571,0.443c-0.136,0.188-0.205,0.402-0.205,0.642c0,0.2,0.048,0.372,0.143,0.515
	c0.095,0.143,0.218,0.261,0.367,0.355c0.149,0.094,0.306,0.171,0.47,0.231c0.164,0.06,0.315,0.108,0.452,0.145l0.752,0.205
	c0.193,0.051,0.408,0.122,0.645,0.213c0.238,0.09,0.465,0.213,0.683,0.368c0.218,0.155,0.399,0.354,0.541,0.596
	c0.142,0.242,0.213,0.539,0.213,0.891c0,0.406-0.104,0.772-0.313,1.1s-0.512,0.588-0.911,0.78c-0.399,0.193-0.883,0.29-1.451,0.29
	c-0.53,0-0.989-0.087-1.376-0.26c-0.387-0.173-0.691-0.416-0.911-0.726c-0.221-0.31-0.345-0.671-0.374-1.081h0.926
	c0.024,0.284,0.118,0.518,0.284,0.702c0.165,0.184,0.375,0.321,0.629,0.41c0.254,0.089,0.528,0.134,0.822,0.134
	c0.342,0,0.65-0.057,0.922-0.17c0.273-0.114,0.488-0.273,0.647-0.477c0.159-0.204,0.239-0.443,0.239-0.717
	c0-0.249-0.069-0.452-0.206-0.608c-0.137-0.157-0.318-0.284-0.542-0.381c-0.224-0.098-0.466-0.184-0.727-0.257l-0.911-0.264
	c-0.578-0.169-1.037-0.409-1.374-0.722c-0.338-0.312-0.506-0.722-0.506-1.228c0-0.42,0.113-0.787,0.338-1.101
	c0.225-0.314,0.529-0.558,0.911-0.733c0.382-0.175,0.809-0.262,1.282-0.262c0.477,0,0.902,0.086,1.273,0.259
	s0.666,0.408,0.884,0.706c0.218,0.298,0.333,0.637,0.345,1.015H7.445z M14.182,109.01c-0.178-0.359-0.452-0.645-0.822-0.856
	c-0.37-0.211-0.846-0.317-1.427-0.317H9.431v7.507h0.897v-2.742h1.619c0.576,0,1.049-0.107,1.418-0.321
	c0.369-0.214,0.641-0.501,0.819-0.863c0.177-0.361,0.266-0.764,0.266-1.206S14.36,109.37,14.182,109.01z M13.403,111.021
	c-0.109,0.238-0.285,0.427-0.526,0.567c-0.242,0.139-0.561,0.208-0.958,0.208h-1.591v-3.152h1.576c0.402,0,0.725,0.068,0.969,0.204
	c0.243,0.136,0.42,0.322,0.529,0.559c0.11,0.237,0.165,0.506,0.165,0.806S13.512,110.783,13.403,111.021z M19.472,115.345h0.94
	l-2.719-7.507h-0.925l-2.719,7.507h0.94l0.745-2.126h2.994L19.472,115.345z M16.016,112.412l1.186-3.387h0.058l1.186,3.387H16.016z
	 M26.722,110.183h-0.897c-0.053-0.262-0.145-0.491-0.276-0.689c-0.131-0.198-0.291-0.365-0.477-0.5
	c-0.187-0.136-0.394-0.238-0.62-0.306c-0.226-0.068-0.463-0.103-0.708-0.103c-0.449,0-0.854,0.115-1.217,0.345
	c-0.363,0.229-0.651,0.568-0.864,1.015c-0.213,0.448-0.32,0.996-0.32,1.646c0,0.65,0.107,1.199,0.32,1.646
	c0.213,0.448,0.501,0.786,0.864,1.016c0.362,0.229,0.768,0.345,1.217,0.345c0.246,0,0.482-0.034,0.708-0.103
	c0.227-0.068,0.434-0.171,0.62-0.306c0.186-0.136,0.346-0.303,0.477-0.502s0.224-0.428,0.276-0.687h0.897
	c-0.067,0.383-0.19,0.727-0.369,1.03c-0.178,0.303-0.4,0.56-0.665,0.771c-0.265,0.212-0.562,0.372-0.891,0.482
	c-0.329,0.11-0.68,0.165-1.053,0.165c-0.632,0-1.193-0.157-1.685-0.47c-0.492-0.312-0.878-0.757-1.161-1.334
	c-0.282-0.577-0.423-1.261-0.423-2.053s0.141-1.476,0.423-2.052c0.282-0.577,0.669-1.022,1.161-1.335
	c0.492-0.313,1.053-0.469,1.685-0.469c0.373,0,0.725,0.055,1.053,0.165c0.329,0.11,0.626,0.271,0.891,0.482
	c0.265,0.212,0.487,0.468,0.665,0.77C26.532,109.453,26.655,109.797,26.722,110.183z M27.71,115.345v-7.507h4.468v0.806h-3.572
	v2.537h3.341v0.806h-3.341v2.552h3.63v0.806H27.71z M37.39,109.714c-0.044-0.371-0.22-0.66-0.528-0.865
	c-0.308-0.205-0.687-0.308-1.135-0.308c-0.328,0-0.615,0.054-0.859,0.162s-0.435,0.255-0.571,0.443
	c-0.136,0.188-0.205,0.402-0.205,0.642c0,0.2,0.048,0.372,0.143,0.515c0.095,0.143,0.218,0.261,0.367,0.355
	c0.149,0.094,0.306,0.171,0.47,0.231c0.164,0.06,0.315,0.108,0.452,0.145l0.752,0.205c0.193,0.051,0.408,0.122,0.645,0.213
	c0.238,0.09,0.465,0.213,0.683,0.368s0.399,0.354,0.541,0.596s0.213,0.539,0.213,0.891c0,0.406-0.104,0.772-0.313,1.1
	c-0.208,0.327-0.512,0.588-0.911,0.78c-0.399,0.193-0.883,0.29-1.451,0.29c-0.53,0-0.989-0.087-1.376-0.26
	c-0.387-0.173-0.691-0.416-0.911-0.726c-0.221-0.31-0.345-0.671-0.374-1.081h0.926c0.024,0.284,0.118,0.518,0.284,0.702
	c0.165,0.184,0.375,0.321,0.629,0.41c0.254,0.089,0.528,0.134,0.822,0.134c0.342,0,0.65-0.057,0.922-0.17
	c0.273-0.114,0.488-0.273,0.647-0.477c0.159-0.204,0.239-0.443,0.239-0.717c0-0.249-0.069-0.452-0.206-0.608
	c-0.137-0.157-0.318-0.284-0.542-0.381c-0.224-0.098-0.466-0.184-0.727-0.257l-0.911-0.264c-0.578-0.169-1.037-0.409-1.374-0.722
	c-0.338-0.312-0.506-0.722-0.506-1.228c0-0.42,0.113-0.787,0.338-1.101c0.225-0.314,0.529-0.558,0.911-0.733
	c0.382-0.175,0.809-0.262,1.282-0.262c0.477,0,0.902,0.086,1.273,0.259c0.371,0.172,0.666,0.408,0.884,0.706
	c0.218,0.298,0.333,0.637,0.345,1.015H37.39z M3.078,119.351v-0.405h3.527v0.405H5.063v4.526H4.62v-4.526H3.078z M8.156,123.954
	c-0.341,0-0.636-0.081-0.883-0.242c-0.249-0.161-0.441-0.385-0.576-0.672c-0.135-0.287-0.203-0.616-0.203-0.991
	c0-0.372,0.068-0.704,0.203-0.993c0.136-0.29,0.323-0.517,0.563-0.682c0.239-0.164,0.517-0.247,0.832-0.247
	c0.198,0,0.389,0.036,0.572,0.11c0.184,0.073,0.348,0.185,0.495,0.334c0.147,0.15,0.263,0.339,0.348,0.566
	c0.085,0.227,0.128,0.495,0.128,0.805v0.212h-2.85v-0.378h2.418c0-0.238-0.047-0.452-0.141-0.642
	c-0.094-0.191-0.225-0.341-0.391-0.452c-0.168-0.111-0.361-0.166-0.579-0.166c-0.231,0-0.434,0.062-0.61,0.187
	c-0.175,0.125-0.312,0.291-0.412,0.496c-0.099,0.205-0.149,0.43-0.15,0.675v0.226c0,0.294,0.049,0.55,0.15,0.769
	c0.101,0.219,0.243,0.388,0.428,0.509c0.185,0.121,0.404,0.18,0.659,0.18c0.172,0,0.323-0.027,0.455-0.082
	c0.13-0.055,0.24-0.128,0.33-0.22c0.089-0.092,0.157-0.194,0.203-0.305l0.401,0.133c-0.055,0.156-0.146,0.299-0.272,0.431
	c-0.126,0.132-0.283,0.237-0.47,0.317S8.399,123.954,8.156,123.954z M12.714,120.99l-0.388,0.111
	c-0.037-0.111-0.091-0.211-0.161-0.301c-0.069-0.09-0.16-0.162-0.272-0.214c-0.112-0.053-0.25-0.079-0.414-0.079
	c-0.247,0-0.449,0.059-0.608,0.178c-0.158,0.119-0.238,0.272-0.238,0.46c0,0.159,0.055,0.288,0.163,0.386
	c0.108,0.099,0.276,0.177,0.502,0.235l0.551,0.137c0.306,0.076,0.535,0.195,0.687,0.359c0.153,0.164,0.229,0.369,0.229,0.616
	c0,0.208-0.057,0.394-0.171,0.556c-0.114,0.162-0.273,0.289-0.476,0.381c-0.204,0.092-0.439,0.139-0.707,0.139
	c-0.356,0-0.65-0.082-0.881-0.244c-0.231-0.163-0.379-0.399-0.444-0.707l0.407-0.101c0.052,0.22,0.155,0.386,0.307,0.499
	c0.153,0.112,0.354,0.169,0.605,0.169c0.279,0,0.504-0.064,0.672-0.192s0.252-0.288,0.252-0.48c0-0.15-0.049-0.275-0.148-0.377
	c-0.098-0.102-0.247-0.177-0.446-0.225l-0.596-0.144c-0.317-0.077-0.551-0.199-0.702-0.366c-0.152-0.167-0.228-0.374-0.228-0.621
	c0-0.204,0.054-0.383,0.163-0.538s0.26-0.276,0.452-0.365c0.192-0.088,0.41-0.132,0.655-0.132c0.334,0,0.601,0.077,0.801,0.23
	C12.48,120.511,12.625,120.722,12.714,120.99z M14.827,120.179v0.373h-1.74v-0.373H14.827z M13.63,119.293h0.425v3.619
	c0,0.154,0.026,0.275,0.079,0.362c0.052,0.088,0.119,0.15,0.204,0.186s0.173,0.054,0.268,0.054c0.055,0,0.103-0.004,0.142-0.011
	s0.075-0.015,0.104-0.023l0.091,0.387c-0.042,0.016-0.092,0.031-0.152,0.045c-0.06,0.014-0.135,0.02-0.224,0.02
	c-0.155,0-0.305-0.035-0.447-0.104c-0.144-0.069-0.261-0.172-0.353-0.308s-0.138-0.306-0.138-0.508V119.293z M17.153,123.877v-4.931
	h1.641c0.317,0,0.581,0.056,0.792,0.169c0.212,0.112,0.37,0.266,0.477,0.46c0.105,0.195,0.159,0.415,0.159,0.662
	c0,0.205-0.034,0.381-0.102,0.528c-0.069,0.146-0.161,0.264-0.278,0.354c-0.117,0.09-0.248,0.155-0.392,0.195v0.038
	c0.157,0.011,0.309,0.067,0.457,0.167c0.147,0.1,0.267,0.241,0.363,0.42s0.142,0.395,0.142,0.645c0,0.249-0.055,0.471-0.163,0.666
	c-0.11,0.195-0.277,0.348-0.503,0.46c-0.226,0.111-0.512,0.167-0.86,0.167H17.153z M17.597,121.173h1.237
	c0.192,0,0.359-0.04,0.504-0.121c0.144-0.08,0.256-0.191,0.336-0.332c0.081-0.141,0.122-0.302,0.122-0.484
	c0-0.261-0.084-0.475-0.252-0.639c-0.168-0.164-0.418-0.247-0.751-0.247h-1.197V121.173z M17.597,123.472h1.288
	c0.375,0,0.652-0.084,0.832-0.253c0.18-0.168,0.27-0.38,0.27-0.636c0-0.187-0.045-0.358-0.134-0.511
	c-0.09-0.153-0.216-0.275-0.378-0.365c-0.162-0.09-0.353-0.135-0.571-0.135h-1.306V123.472z M22.568,123.954
	c-0.341,0-0.635-0.081-0.883-0.242c-0.249-0.161-0.441-0.385-0.575-0.672c-0.136-0.287-0.204-0.616-0.204-0.991
	c0-0.372,0.068-0.704,0.204-0.993c0.135-0.29,0.322-0.517,0.562-0.682c0.24-0.164,0.517-0.247,0.833-0.247
	c0.197,0,0.388,0.036,0.572,0.11c0.183,0.073,0.348,0.185,0.495,0.334c0.146,0.15,0.262,0.339,0.347,0.566
	c0.085,0.227,0.128,0.495,0.128,0.805v0.212h-2.849v-0.378h2.418c0-0.238-0.047-0.452-0.141-0.642
	c-0.094-0.191-0.225-0.341-0.392-0.452c-0.167-0.111-0.359-0.166-0.578-0.166c-0.231,0-0.435,0.062-0.61,0.187
	c-0.176,0.125-0.313,0.291-0.412,0.496c-0.1,0.205-0.149,0.43-0.151,0.675v0.226c0,0.294,0.05,0.55,0.151,0.769
	c0.1,0.219,0.243,0.388,0.428,0.509c0.185,0.121,0.404,0.18,0.658,0.18c0.173,0,0.324-0.027,0.455-0.082s0.241-0.128,0.33-0.22
	c0.09-0.092,0.158-0.194,0.203-0.305l0.402,0.133c-0.056,0.156-0.147,0.299-0.272,0.431c-0.126,0.132-0.283,0.237-0.47,0.317
	C23.027,123.914,22.813,123.954,22.568,123.954z M25.988,123.954c-0.299,0-0.561-0.081-0.786-0.241
	c-0.226-0.161-0.401-0.384-0.526-0.672c-0.126-0.287-0.19-0.622-0.19-1.004c0-0.38,0.064-0.714,0.19-1.001
	c0.125-0.286,0.301-0.51,0.528-0.669c0.226-0.159,0.49-0.239,0.79-0.239c0.221,0,0.407,0.039,0.553,0.119
	c0.147,0.079,0.265,0.178,0.354,0.295c0.089,0.117,0.158,0.231,0.206,0.341h0.038v-1.938h0.425v4.931h-0.413v-0.686h-0.05
	c-0.048,0.112-0.118,0.227-0.208,0.345c-0.091,0.118-0.209,0.217-0.357,0.298C26.395,123.914,26.21,123.954,25.988,123.954z
	 M26.038,123.561c0.236,0,0.437-0.065,0.604-0.196c0.165-0.13,0.293-0.311,0.38-0.541c0.089-0.231,0.133-0.495,0.133-0.793
	c0-0.295-0.044-0.557-0.132-0.784c-0.087-0.227-0.214-0.405-0.379-0.535c-0.167-0.129-0.368-0.193-0.606-0.193
	c-0.243,0-0.449,0.067-0.616,0.201c-0.167,0.134-0.294,0.315-0.38,0.543c-0.087,0.228-0.129,0.484-0.129,0.768
	c0,0.287,0.044,0.546,0.13,0.778c0.088,0.231,0.215,0.415,0.381,0.55C25.591,123.494,25.796,123.561,26.038,123.561z"/>
</svg>
