<?xml version="1.0" encoding="iso-8859-1"?>
<!-- Generator: Adobe Illustrator 29.3.0, SVG Export Plug-In . SVG Version: 9.03 Build 55982)  -->
<svg version="1.1" id="Layer_1" xmlns="http://www.w3.org/2000/svg" xmlns:xlink="http://www.w3.org/1999/xlink" x="0px" y="0px"
	 viewBox="0 0 67.567 104.417" style="enable-background:new 0 0 67.567 104.417;" xml:space="preserve">
<path style="fill:#272469;" d="M11.796,61.947h0.858l-2.481-6.848H9.329l-2.48,6.848h0.858l0.679-1.94h2.731L11.796,61.947z
	 M8.643,59.272l1.082-3.09h0.053l1.082,3.09H8.643z M12.935,55.099l2.005,5.765h0.079l2.005-5.765h0.858l-2.48,6.848h-0.844
	l-2.48-6.848H12.935z M18.519,61.947v-6.848h4.076v0.735h-3.258v2.314h3.047v0.735h-3.047v2.328h3.311v0.735H18.519z M24.473,55.099
	v6.848h-0.818v-6.848H24.473z M30.532,61.947l-1.526-2.824c0.096-0.033,0.186-0.072,0.27-0.116c0.336-0.177,0.586-0.422,0.749-0.734
	c0.163-0.312,0.244-0.67,0.244-1.073s-0.082-0.763-0.244-1.08c-0.163-0.317-0.413-0.566-0.752-0.748
	c-0.339-0.181-0.772-0.272-1.299-0.272h-2.282v6.848h0.818v-2.675h1.477c0.059,0,0.113-0.005,0.17-0.008l1.426,2.683H30.532z
	 M26.509,55.834h1.438c0.365,0,0.658,0.057,0.881,0.169c0.222,0.112,0.384,0.271,0.485,0.477c0.101,0.205,0.152,0.445,0.152,0.719
	c0,0.274-0.05,0.51-0.15,0.707c-0.1,0.197-0.26,0.349-0.481,0.456c-0.221,0.107-0.512,0.16-0.872,0.16h-1.451V55.834z
	 M36.908,58.522c0,0.722-0.129,1.347-0.386,1.873c-0.257,0.526-0.61,0.932-1.059,1.217c-0.449,0.285-0.961,0.428-1.537,0.428
	c-0.576,0-1.089-0.143-1.537-0.428c-0.449-0.285-0.801-0.691-1.059-1.217c-0.257-0.526-0.386-1.151-0.386-1.873
	c0-0.722,0.129-1.346,0.386-1.872c0.257-0.526,0.61-0.932,1.059-1.217c0.449-0.285,0.961-0.428,1.537-0.428
	c0.576,0,1.088,0.142,1.537,0.428c0.449,0.285,0.801,0.691,1.059,1.217C36.779,57.176,36.908,57.8,36.908,58.522z M36.117,58.522
	c0-0.593-0.097-1.093-0.292-1.501c-0.195-0.408-0.457-0.717-0.788-0.926c-0.331-0.21-0.701-0.314-1.11-0.314
	c-0.409,0-0.779,0.105-1.11,0.314c-0.331,0.209-0.594,0.518-0.789,0.926c-0.195,0.408-0.292,0.908-0.292,1.501
	s0.097,1.094,0.292,1.501c0.195,0.408,0.457,0.717,0.789,0.927c0.331,0.209,0.701,0.314,1.11,0.314c0.409,0,0.779-0.105,1.11-0.314
	c0.331-0.21,0.593-0.518,0.788-0.927C36.019,59.616,36.117,59.115,36.117,58.522z M10.833,66.054c-0.04-0.338-0.2-0.602-0.482-0.789
	c-0.281-0.187-0.626-0.281-1.035-0.281c-0.299,0-0.561,0.049-0.784,0.147c-0.223,0.098-0.397,0.233-0.521,0.404
	c-0.124,0.172-0.187,0.367-0.187,0.586c0,0.183,0.044,0.339,0.13,0.47c0.087,0.13,0.198,0.238,0.335,0.324
	c0.136,0.086,0.279,0.156,0.428,0.211c0.15,0.055,0.287,0.099,0.413,0.132l0.686,0.187c0.176,0.047,0.372,0.112,0.589,0.194
	s0.424,0.195,0.623,0.336s0.364,0.323,0.493,0.543c0.13,0.221,0.195,0.491,0.195,0.813c0,0.37-0.095,0.704-0.285,1.003
	s-0.467,0.536-0.831,0.712c-0.364,0.176-0.805,0.264-1.324,0.264c-0.484,0-0.902-0.079-1.255-0.237
	c-0.353-0.158-0.63-0.379-0.831-0.662c-0.201-0.283-0.315-0.612-0.341-0.986h0.845c0.022,0.259,0.108,0.472,0.259,0.641
	c0.15,0.168,0.342,0.293,0.574,0.374c0.232,0.082,0.482,0.122,0.75,0.122c0.312,0,0.592-0.052,0.841-0.155
	c0.249-0.104,0.445-0.249,0.591-0.435c0.145-0.186,0.218-0.404,0.218-0.654c0-0.227-0.063-0.412-0.188-0.555
	c-0.125-0.143-0.29-0.259-0.495-0.348c-0.204-0.089-0.425-0.168-0.663-0.234L8.748,67.94c-0.528-0.154-0.946-0.373-1.253-0.659
	c-0.308-0.285-0.462-0.658-0.462-1.12c0-0.383,0.103-0.718,0.309-1.005c0.205-0.286,0.482-0.509,0.831-0.669
	c0.349-0.16,0.738-0.239,1.169-0.239c0.435,0,0.822,0.079,1.161,0.236c0.338,0.157,0.608,0.372,0.807,0.644
	c0.199,0.272,0.304,0.581,0.315,0.926H10.833z M12.644,64.342h0.976l2.295,5.684h0.079l2.296-5.684h0.976v6.848h-0.765v-5.203
	h-0.066l-2.111,5.203h-0.739l-2.111-5.203h-0.066v5.203h-0.765V64.342z M24.851,71.19h0.858l-2.48-6.848h-0.844l-2.48,6.848h0.858
	l0.679-1.94h2.731L24.851,71.19z M21.698,68.515l1.082-3.09h0.053l1.082,3.09H21.698z M31.188,71.19l-1.526-2.824
	c0.096-0.033,0.186-0.072,0.27-0.116c0.336-0.177,0.586-0.422,0.749-0.734c0.163-0.312,0.244-0.67,0.244-1.073
	c0-0.403-0.082-0.763-0.244-1.08c-0.163-0.317-0.413-0.566-0.752-0.748c-0.339-0.181-0.772-0.272-1.299-0.272h-2.282v6.848h0.818
	v-2.675h1.477c0.059,0,0.113-0.005,0.17-0.008l1.426,2.683H31.188z M27.164,65.078h1.438c0.365,0,0.658,0.056,0.881,0.169
	c0.222,0.112,0.384,0.271,0.485,0.476c0.101,0.205,0.152,0.445,0.152,0.719c0,0.274-0.05,0.51-0.15,0.707
	c-0.1,0.197-0.26,0.349-0.481,0.456c-0.221,0.107-0.512,0.16-0.872,0.16h-1.451V65.078z M31.495,65.078v-0.735h5.066v0.735h-2.124
	v6.113h-0.818v-6.113H31.495z M12.548,75.752H11.73c-0.048-0.239-0.132-0.448-0.252-0.629c-0.12-0.18-0.265-0.333-0.435-0.456
	c-0.17-0.124-0.359-0.217-0.566-0.279c-0.206-0.062-0.422-0.094-0.646-0.094c-0.409,0-0.779,0.105-1.11,0.314
	c-0.331,0.209-0.594,0.518-0.789,0.926c-0.195,0.408-0.292,0.908-0.292,1.501c0,0.593,0.097,1.094,0.292,1.501
	c0.195,0.408,0.457,0.717,0.789,0.927c0.331,0.209,0.701,0.314,1.11,0.314c0.224,0,0.44-0.031,0.646-0.094
	c0.207-0.062,0.395-0.156,0.566-0.279c0.17-0.124,0.315-0.277,0.435-0.458c0.12-0.182,0.204-0.391,0.252-0.627h0.818
	c-0.061,0.35-0.173,0.663-0.337,0.94c-0.163,0.276-0.365,0.511-0.607,0.704c-0.242,0.193-0.513,0.339-0.813,0.44
	c-0.3,0.1-0.62,0.151-0.961,0.151c-0.576,0-1.089-0.143-1.537-0.428c-0.449-0.285-0.801-0.691-1.059-1.217
	c-0.257-0.526-0.386-1.151-0.386-1.873c0-0.722,0.129-1.346,0.386-1.872c0.257-0.526,0.61-0.932,1.059-1.217
	c0.449-0.285,0.961-0.428,1.537-0.428c0.34,0,0.661,0.05,0.961,0.15c0.3,0.101,0.571,0.247,0.813,0.44
	c0.242,0.193,0.444,0.427,0.607,0.703C12.374,75.086,12.486,75.4,12.548,75.752z M19.148,77.036c0,0.722-0.129,1.347-0.386,1.873
	c-0.257,0.526-0.61,0.932-1.059,1.217c-0.449,0.285-0.961,0.428-1.537,0.428c-0.576,0-1.089-0.143-1.537-0.428
	c-0.449-0.285-0.801-0.691-1.059-1.217c-0.257-0.526-0.386-1.151-0.386-1.873c0-0.722,0.129-1.346,0.386-1.872
	c0.257-0.526,0.61-0.932,1.059-1.217c0.449-0.285,0.961-0.428,1.537-0.428c0.576,0,1.088,0.142,1.537,0.428
	c0.449,0.285,0.801,0.691,1.059,1.217C19.019,75.69,19.148,76.314,19.148,77.036z M18.356,77.036c0-0.593-0.097-1.093-0.292-1.501
	c-0.195-0.408-0.457-0.717-0.788-0.926c-0.331-0.21-0.701-0.314-1.11-0.314c-0.409,0-0.779,0.105-1.11,0.314
	c-0.331,0.209-0.594,0.518-0.789,0.926c-0.195,0.408-0.292,0.908-0.292,1.501c0,0.593,0.097,1.094,0.292,1.501
	c0.195,0.408,0.457,0.717,0.789,0.927c0.331,0.209,0.701,0.314,1.11,0.314c0.409,0,0.779-0.105,1.11-0.314
	c0.331-0.21,0.593-0.518,0.788-0.927C18.259,78.129,18.356,77.629,18.356,77.036z M25.458,73.612v6.848h-0.791l-3.681-5.377H20.92
	v5.377h-0.818v-6.848h0.791l3.694,5.39h0.066v-5.39H25.458z M32.032,73.612v6.848H31.24l-3.681-5.377h-0.066v5.377h-0.818v-6.848
	h0.791l3.694,5.39h0.066v-5.39H32.032z M33.25,80.46v-6.848h4.076v0.735h-3.258v2.314h3.047v0.735h-3.047v2.328h3.311v0.735H33.25z
	 M43.82,75.752h-0.818c-0.048-0.239-0.132-0.448-0.252-0.629c-0.12-0.18-0.265-0.333-0.435-0.456
	c-0.17-0.124-0.359-0.217-0.566-0.279c-0.206-0.062-0.422-0.094-0.646-0.094c-0.409,0-0.779,0.105-1.11,0.314
	c-0.331,0.209-0.594,0.518-0.789,0.926c-0.195,0.408-0.292,0.908-0.292,1.501c0,0.593,0.097,1.094,0.292,1.501
	c0.195,0.408,0.457,0.717,0.789,0.927c0.331,0.209,0.701,0.314,1.11,0.314c0.224,0,0.44-0.031,0.646-0.094
	c0.207-0.062,0.395-0.156,0.566-0.279c0.17-0.124,0.315-0.277,0.435-0.458c0.12-0.182,0.204-0.391,0.252-0.627h0.818
	c-0.061,0.35-0.173,0.663-0.337,0.94c-0.163,0.276-0.365,0.511-0.607,0.704c-0.242,0.193-0.513,0.339-0.813,0.44
	c-0.3,0.1-0.62,0.151-0.961,0.151c-0.576,0-1.089-0.143-1.537-0.428c-0.449-0.285-0.801-0.691-1.059-1.217
	c-0.257-0.526-0.386-1.151-0.386-1.873c0-0.722,0.129-1.346,0.386-1.872c0.257-0.526,0.61-0.932,1.059-1.217
	c0.449-0.285,0.961-0.428,1.537-0.428c0.34,0,0.661,0.05,0.961,0.15c0.3,0.101,0.571,0.247,0.813,0.44
	c0.242,0.193,0.444,0.427,0.607,0.703C43.647,75.086,43.759,75.4,43.82,75.752z M44.353,74.348v-0.735h5.066v0.735h-2.124v6.113
	h-0.818v-6.113H44.353z M50.267,80.46v-6.848h4.076v0.735h-3.258v2.314h3.047v0.735h-3.047v2.328h3.311v0.735H50.267z M57.487,80.46
	h-2.085v-6.848h2.177c0.655,0,1.215,0.137,1.682,0.409c0.466,0.273,0.823,0.665,1.072,1.174c0.249,0.509,0.373,1.119,0.373,1.828
	c0,0.713-0.125,1.327-0.376,1.841c-0.251,0.514-0.616,0.908-1.095,1.183C58.756,80.323,58.173,80.46,57.487,80.46z M56.221,79.725
	h1.213c0.559,0,1.021-0.11,1.388-0.328c0.367-0.219,0.641-0.53,0.821-0.933c0.18-0.404,0.27-0.884,0.27-1.441
	c0-0.553-0.089-1.029-0.267-1.43c-0.178-0.4-0.444-0.707-0.798-0.923c-0.354-0.215-0.795-0.323-1.323-0.323h-1.306V79.725z
	 M10.833,84.567c-0.04-0.338-0.2-0.602-0.482-0.789c-0.281-0.187-0.626-0.281-1.035-0.281c-0.299,0-0.561,0.049-0.784,0.147
	c-0.223,0.098-0.397,0.233-0.521,0.404c-0.124,0.172-0.187,0.367-0.187,0.586c0,0.183,0.044,0.339,0.13,0.47
	c0.087,0.13,0.198,0.238,0.335,0.324c0.136,0.086,0.279,0.156,0.428,0.211c0.15,0.055,0.287,0.099,0.413,0.132l0.686,0.187
	c0.176,0.047,0.372,0.112,0.589,0.194s0.424,0.195,0.623,0.336c0.199,0.141,0.364,0.323,0.493,0.543
	c0.13,0.221,0.195,0.491,0.195,0.813c0,0.37-0.095,0.704-0.285,1.003s-0.467,0.536-0.831,0.712
	c-0.364,0.176-0.805,0.264-1.324,0.264c-0.484,0-0.902-0.079-1.255-0.237c-0.353-0.158-0.63-0.379-0.831-0.662
	c-0.201-0.283-0.315-0.612-0.341-0.986h0.845c0.022,0.259,0.108,0.472,0.259,0.641c0.15,0.168,0.342,0.293,0.574,0.374
	c0.232,0.082,0.482,0.122,0.75,0.122c0.312,0,0.592-0.052,0.841-0.155c0.249-0.104,0.445-0.249,0.591-0.435
	c0.145-0.186,0.218-0.404,0.218-0.654c0-0.227-0.063-0.412-0.188-0.555c-0.125-0.143-0.29-0.259-0.495-0.348
	c-0.204-0.089-0.425-0.168-0.663-0.234l-0.831-0.241c-0.528-0.154-0.946-0.373-1.253-0.659c-0.308-0.285-0.462-0.658-0.462-1.12
	c0-0.383,0.103-0.718,0.309-1.005c0.205-0.286,0.482-0.509,0.831-0.669c0.349-0.16,0.738-0.239,1.169-0.239
	c0.435,0,0.822,0.079,1.161,0.236s0.608,0.372,0.807,0.644c0.199,0.272,0.304,0.581,0.315,0.926H10.833z M16.978,83.926
	c-0.163-0.328-0.413-0.588-0.75-0.781c-0.338-0.193-0.771-0.289-1.302-0.289h-2.282v6.848h0.818v-2.501h1.477
	c0.526,0,0.956-0.098,1.293-0.293c0.336-0.195,0.585-0.457,0.747-0.788c0.162-0.33,0.243-0.697,0.243-1.1
	C17.222,84.619,17.14,84.253,16.978,83.926z M16.267,85.76c-0.1,0.217-0.26,0.39-0.479,0.517c-0.22,0.127-0.511,0.19-0.874,0.19
	h-1.451v-2.875H14.9c0.367,0,0.662,0.062,0.884,0.186c0.222,0.124,0.383,0.294,0.483,0.51c0.1,0.216,0.15,0.461,0.15,0.735
	S16.367,85.542,16.267,85.76z M21.804,89.704h0.858l-2.48-6.848h-0.844l-2.481,6.848h0.858l0.679-1.94h2.731L21.804,89.704z
	 M18.651,87.029l1.082-3.09h0.053l1.082,3.09H18.651z M28.417,84.996h-0.818c-0.048-0.239-0.132-0.448-0.252-0.629
	c-0.12-0.18-0.265-0.333-0.435-0.456c-0.17-0.124-0.359-0.217-0.566-0.279c-0.206-0.062-0.422-0.094-0.646-0.094
	c-0.409,0-0.779,0.105-1.11,0.314c-0.331,0.209-0.594,0.518-0.789,0.926c-0.195,0.408-0.292,0.908-0.292,1.501
	c0,0.593,0.097,1.094,0.292,1.501c0.195,0.408,0.457,0.717,0.789,0.927c0.331,0.209,0.701,0.314,1.11,0.314
	c0.224,0,0.44-0.031,0.646-0.094c0.207-0.062,0.395-0.156,0.566-0.279c0.17-0.124,0.315-0.277,0.435-0.458
	c0.12-0.182,0.204-0.391,0.252-0.627h0.818c-0.061,0.35-0.173,0.663-0.337,0.94c-0.163,0.276-0.365,0.511-0.607,0.704
	c-0.242,0.193-0.513,0.339-0.813,0.44c-0.3,0.1-0.62,0.151-0.961,0.151c-0.576,0-1.089-0.143-1.537-0.428
	c-0.449-0.285-0.801-0.691-1.059-1.217c-0.257-0.526-0.386-1.151-0.386-1.873s0.129-1.346,0.386-1.872
	c0.257-0.526,0.61-0.932,1.059-1.217c0.449-0.285,0.961-0.428,1.537-0.428c0.34,0,0.661,0.05,0.961,0.15
	c0.3,0.101,0.571,0.247,0.813,0.44c0.242,0.193,0.444,0.427,0.607,0.703C28.244,84.329,28.356,84.643,28.417,84.996z M29.318,89.704
	v-6.848h4.076v0.735h-3.258v2.314h3.047v0.735h-3.047v2.328h3.311v0.735H29.318z M38.149,84.567c-0.04-0.338-0.2-0.602-0.482-0.789
	c-0.281-0.187-0.626-0.281-1.035-0.281c-0.299,0-0.561,0.049-0.784,0.147s-0.397,0.233-0.521,0.404
	c-0.124,0.172-0.187,0.367-0.187,0.586c0,0.183,0.044,0.339,0.13,0.47c0.087,0.13,0.198,0.238,0.335,0.324
	c0.136,0.086,0.279,0.156,0.428,0.211c0.15,0.055,0.287,0.099,0.413,0.132l0.686,0.187c0.176,0.047,0.372,0.112,0.589,0.194
	c0.217,0.083,0.424,0.195,0.623,0.336c0.199,0.141,0.364,0.323,0.493,0.543c0.13,0.221,0.195,0.491,0.195,0.813
	c0,0.37-0.095,0.704-0.285,1.003s-0.467,0.536-0.831,0.712c-0.364,0.176-0.805,0.264-1.324,0.264c-0.484,0-0.902-0.079-1.255-0.237
	c-0.353-0.158-0.63-0.379-0.831-0.662c-0.201-0.283-0.315-0.612-0.341-0.986h0.845c0.022,0.259,0.108,0.472,0.259,0.641
	c0.15,0.168,0.342,0.293,0.574,0.374c0.232,0.082,0.482,0.122,0.75,0.122c0.312,0,0.592-0.052,0.841-0.155s0.445-0.249,0.591-0.435
	c0.145-0.186,0.218-0.404,0.218-0.654c0-0.227-0.063-0.412-0.188-0.555c-0.125-0.143-0.29-0.259-0.495-0.348
	c-0.204-0.089-0.425-0.168-0.663-0.234l-0.831-0.241c-0.528-0.154-0.946-0.373-1.253-0.659c-0.308-0.285-0.462-0.658-0.462-1.12
	c0-0.383,0.103-0.718,0.309-1.005c0.205-0.286,0.482-0.509,0.831-0.669c0.349-0.16,0.738-0.239,1.169-0.239
	c0.435,0,0.822,0.079,1.161,0.236s0.608,0.372,0.807,0.644c0.199,0.272,0.304,0.581,0.315,0.926H38.149z M6.849,93.358v-0.369h3.217
	v0.369H8.66v4.129H8.255v-4.129H6.849z M12.831,95.723c0-0.283-0.039-0.527-0.117-0.735c-0.078-0.207-0.184-0.379-0.318-0.516
	c-0.134-0.136-0.284-0.238-0.452-0.305c-0.167-0.067-0.341-0.1-0.522-0.1c-0.287,0-0.541,0.075-0.759,0.225
	c-0.219,0.15-0.39,0.357-0.514,0.622c-0.123,0.264-0.185,0.566-0.185,0.906c0,0.341,0.062,0.642,0.185,0.904
	c0.124,0.261,0.299,0.466,0.526,0.613c0.226,0.147,0.495,0.221,0.806,0.221c0.222,0,0.419-0.036,0.59-0.109
	c0.171-0.072,0.314-0.168,0.429-0.289c0.115-0.12,0.198-0.251,0.248-0.393l-0.366-0.121c-0.042,0.101-0.104,0.194-0.185,0.278
	c-0.082,0.084-0.182,0.151-0.301,0.201c-0.12,0.05-0.258,0.074-0.415,0.074c-0.232,0-0.432-0.054-0.601-0.164
	c-0.169-0.11-0.299-0.265-0.391-0.464c-0.086-0.187-0.127-0.407-0.133-0.654h2.474V95.723z M10.362,95.572
	c0.012-0.187,0.05-0.364,0.127-0.525c0.091-0.187,0.216-0.338,0.376-0.452c0.161-0.114,0.346-0.171,0.557-0.171
	c0.199,0,0.375,0.05,0.528,0.151c0.152,0.101,0.271,0.238,0.357,0.412c0.086,0.173,0.129,0.368,0.129,0.585H10.362z M15.639,94.854
	l-0.354,0.101c-0.034-0.101-0.083-0.192-0.147-0.274c-0.063-0.082-0.146-0.147-0.248-0.195c-0.102-0.048-0.228-0.072-0.378-0.072
	c-0.225,0-0.41,0.054-0.555,0.162c-0.144,0.108-0.217,0.248-0.217,0.419c0,0.145,0.05,0.262,0.149,0.352
	c0.099,0.09,0.252,0.161,0.458,0.214l0.503,0.125c0.279,0.069,0.488,0.178,0.627,0.327c0.14,0.149,0.209,0.336,0.209,0.562
	c0,0.19-0.052,0.359-0.156,0.507c-0.104,0.147-0.249,0.264-0.434,0.348c-0.186,0.084-0.401,0.126-0.645,0.126
	c-0.325,0-0.593-0.074-0.804-0.223c-0.211-0.149-0.346-0.364-0.405-0.645l0.371-0.092c0.047,0.201,0.141,0.352,0.28,0.455
	c0.14,0.102,0.323,0.154,0.552,0.154c0.255,0,0.46-0.058,0.613-0.175s0.23-0.262,0.23-0.438c0-0.136-0.045-0.251-0.135-0.344
	c-0.089-0.093-0.225-0.161-0.407-0.205l-0.544-0.131c-0.289-0.07-0.503-0.182-0.641-0.334c-0.139-0.152-0.208-0.341-0.208-0.567
	c0-0.186,0.049-0.349,0.149-0.491c0.1-0.141,0.237-0.252,0.412-0.333c0.175-0.08,0.374-0.12,0.598-0.12
	c0.305,0,0.548,0.07,0.731,0.209C15.426,94.417,15.558,94.609,15.639,94.854z M17.673,97.478c-0.038,0.015-0.084,0.029-0.139,0.041
	c-0.055,0.013-0.123,0.018-0.204,0.018c-0.141,0-0.278-0.031-0.408-0.094c-0.131-0.063-0.238-0.156-0.322-0.281
	c-0.084-0.125-0.126-0.279-0.126-0.463v-2.245h-0.496v-0.34h0.496v-0.808h0.388v0.808h0.704v0.34h-0.704v2.152
	c0,0.14,0.024,0.251,0.072,0.33c0.047,0.08,0.109,0.136,0.186,0.169c0.077,0.033,0.158,0.049,0.245,0.049
	c0.05,0,0.094-0.004,0.13-0.01c0.036-0.006,0.068-0.013,0.095-0.021L17.673,97.478z M19.688,97.487v-4.498h1.497
	c0.289,0,0.53,0.051,0.723,0.154c0.193,0.102,0.338,0.242,0.435,0.419c0.096,0.177,0.145,0.378,0.145,0.604
	c0,0.187-0.031,0.348-0.093,0.481c-0.063,0.133-0.147,0.241-0.254,0.323c-0.107,0.082-0.226,0.141-0.358,0.178v0.035
	c0.143,0.01,0.282,0.061,0.417,0.152c0.134,0.091,0.244,0.219,0.331,0.383c0.087,0.164,0.13,0.36,0.13,0.588
	c0,0.227-0.05,0.429-0.149,0.607c-0.1,0.178-0.253,0.318-0.459,0.42c-0.206,0.101-0.467,0.152-0.785,0.152H19.688z M20.093,95.021
	h1.129c0.175,0,0.328-0.036,0.46-0.11c0.131-0.073,0.234-0.174,0.307-0.303c0.074-0.129,0.111-0.276,0.111-0.442
	c0-0.238-0.077-0.433-0.23-0.583c-0.153-0.15-0.381-0.225-0.685-0.225h-1.092V95.021z M20.093,97.118h1.175
	c0.342,0,0.595-0.077,0.759-0.231c0.164-0.153,0.246-0.347,0.246-0.58c0-0.171-0.041-0.326-0.122-0.466
	c-0.082-0.14-0.197-0.251-0.345-0.333c-0.148-0.082-0.322-0.123-0.521-0.123h-1.192V97.118z M25.977,95.723
	c0-0.283-0.039-0.527-0.117-0.735c-0.078-0.207-0.184-0.379-0.317-0.516c-0.134-0.136-0.285-0.238-0.452-0.305
	c-0.168-0.067-0.342-0.1-0.522-0.1c-0.288,0-0.541,0.075-0.76,0.225c-0.219,0.15-0.39,0.357-0.513,0.622
	c-0.124,0.264-0.186,0.566-0.186,0.906c0,0.341,0.062,0.642,0.186,0.904c0.123,0.261,0.298,0.466,0.525,0.613
	c0.227,0.147,0.495,0.221,0.806,0.221c0.223,0,0.419-0.036,0.591-0.109c0.171-0.072,0.314-0.168,0.429-0.289
	c0.114-0.12,0.197-0.251,0.248-0.393l-0.367-0.121c-0.041,0.101-0.103,0.194-0.185,0.278c-0.081,0.084-0.182,0.151-0.301,0.201
	c-0.119,0.05-0.257,0.074-0.415,0.074c-0.231,0-0.431-0.054-0.6-0.164c-0.169-0.11-0.3-0.265-0.391-0.464
	c-0.086-0.187-0.128-0.407-0.134-0.654h2.474V95.723z M23.509,95.572c0.012-0.187,0.05-0.364,0.128-0.525
	c0.09-0.187,0.215-0.338,0.376-0.452c0.16-0.114,0.346-0.171,0.557-0.171c0.199,0,0.375,0.05,0.527,0.151
	c0.153,0.101,0.272,0.238,0.358,0.412c0.086,0.173,0.129,0.368,0.129,0.585H23.509z M27.748,97.557c-0.273,0-0.512-0.073-0.717-0.22
	c-0.206-0.146-0.366-0.35-0.48-0.613c-0.115-0.262-0.173-0.567-0.173-0.916c0-0.347,0.058-0.651,0.173-0.913
	c0.114-0.261,0.275-0.465,0.482-0.61c0.206-0.145,0.447-0.218,0.721-0.218c0.202,0,0.371,0.036,0.505,0.108s0.242,0.162,0.323,0.269
	c0.081,0.106,0.144,0.21,0.188,0.311h0.035v-1.768h0.388v4.498h-0.377v-0.626h-0.046c-0.044,0.102-0.108,0.207-0.19,0.315
	c-0.083,0.108-0.191,0.198-0.326,0.271C28.119,97.52,27.95,97.557,27.748,97.557z M27.793,97.199c0.215,0,0.399-0.059,0.551-0.179
	c0.151-0.119,0.267-0.284,0.347-0.494c0.081-0.21,0.121-0.451,0.121-0.724c0-0.269-0.04-0.508-0.12-0.715
	c-0.079-0.207-0.195-0.37-0.346-0.488c-0.152-0.117-0.336-0.176-0.553-0.176c-0.222,0-0.41,0.061-0.562,0.183
	c-0.152,0.122-0.268,0.287-0.347,0.495c-0.079,0.208-0.118,0.441-0.118,0.701c0,0.262,0.04,0.498,0.119,0.709
	c0.08,0.211,0.196,0.378,0.348,0.502C27.385,97.137,27.572,97.199,27.793,97.199z M47.526,31.549
	c-4.414,4.414-9.555,7.88-15.279,10.301c-5.927,2.507-12.222,3.778-18.71,3.778c-2.255,0-4.487-0.154-6.688-0.46l0-1.59
	c2.196,0.315,4.43,0.477,6.688,0.477c12.419,0,24.095-4.836,32.877-13.618c6.55-6.55,10.904-14.711,12.694-23.588l1.599,0v0.019
	c-0.631,3.216-1.592,6.358-2.879,9.403C55.406,21.995,51.94,27.135,47.526,31.549z M13.537,39.102c-2.263,0-4.497-0.183-6.688-0.535
	l0-1.593c2.189,0.367,4.424,0.556,6.688,0.556c10.676,0,20.713-4.157,28.262-11.706c5.308-5.308,8.937-11.848,10.625-18.974l1.617,0
	c-1.716,7.548-5.522,14.478-11.13,20.086C35.065,34.781,24.633,39.102,13.537,39.102z M13.537,32.875
	c-2.27,0-4.507-0.215-6.688-0.631l0-1.602c2.179,0.436,4.416,0.659,6.688,0.659c9.013,0,17.486-3.51,23.859-9.883
	c4.12-4.12,7.041-9.118,8.593-14.571l1.634,0c-1.591,5.876-4.694,11.263-9.114,15.683C31.838,29.202,22.97,32.875,13.537,32.875z"/>
</svg>
