<?xml version="1.0" encoding="iso-8859-1"?>
<!-- Generator: Adobe Illustrator 29.3.0, SVG Export Plug-In . SVG Version: 9.03 Build 55982)  -->
<svg version="1.1" id="Layer_1" xmlns="http://www.w3.org/2000/svg" xmlns:xlink="http://www.w3.org/1999/xlink" x="0px" y="0px"
	 viewBox="0 0 132.729 56.194" style="enable-background:new 0 0 132.729 56.194;" xml:space="preserve">
<path style="fill:#272469;" d="M51.443,33.926c-4.84,4.84-10.476,8.64-16.752,11.294c-6.498,2.748-13.4,4.142-20.515,4.142
	c-2.473,0-4.92-0.169-7.334-0.504l0-1.743c2.408,0.345,4.857,0.522,7.334,0.522c13.617,0,26.419-5.303,36.047-14.931
	c7.182-7.182,11.955-16.129,13.918-25.863l1.753,0v0.021c-0.692,3.526-1.745,6.971-3.157,10.31
	C60.083,23.45,56.283,29.086,51.443,33.926z M46.384,28.866c6.149-6.149,10.322-13.747,12.203-22.023l-1.773,0
	c-1.851,7.813-5.829,14.983-11.65,20.804c-8.277,8.277-19.282,12.835-30.988,12.835c-2.483,0-4.933-0.207-7.334-0.609l0,1.747
	c2.403,0.387,4.853,0.587,7.334,0.587C26.343,42.207,37.781,37.469,46.384,28.866z M41.556,24.039
	c4.847-4.847,8.249-10.753,9.993-17.196l-1.791,0c-1.702,5.979-4.905,11.459-9.422,15.976c-6.988,6.988-16.278,10.836-26.16,10.836
	c-2.491,0-4.945-0.245-7.334-0.723l0,1.756c2.392,0.456,4.845,0.692,7.334,0.692C24.519,35.38,34.243,31.352,41.556,24.039z
	 M76.024,11.841h-2.729l-0.679,1.938h-0.857l2.478-6.843h0.843l2.479,6.843h-0.857L76.024,11.841z M75.767,11.106l-1.081-3.087
	h-0.053l-1.081,3.087H75.767z M76.983,6.937l2.479,6.843h0.843l2.479-6.843h-0.857l-2.004,5.76h-0.079l-2.003-5.76H76.983z
	 M87.546,13.779v-0.735h-3.309v-2.326h3.045V9.984h-3.045V7.671h3.256V6.937H83.42v6.843H87.546z M88.553,6.937v6.843h0.817V6.937
	H88.553z M94.475,13.779l-1.425-2.68c-0.057,0.002-0.111,0.008-0.17,0.008h-1.476v2.673h-0.817V6.937h2.28
	c0.527,0,0.96,0.091,1.298,0.272c0.339,0.182,0.589,0.431,0.752,0.747c0.162,0.316,0.244,0.676,0.244,1.079
	s-0.081,0.761-0.244,1.073c-0.162,0.312-0.412,0.556-0.748,0.733c-0.084,0.044-0.174,0.083-0.27,0.116l1.525,2.822H94.475z
	 M91.404,10.358h1.45c0.36,0,0.651-0.054,0.871-0.16c0.221-0.107,0.381-0.259,0.481-0.456c0.1-0.197,0.15-0.433,0.15-0.707
	c0-0.274-0.05-0.514-0.152-0.718c-0.101-0.205-0.263-0.364-0.484-0.476c-0.222-0.112-0.515-0.169-0.88-0.169h-1.437V10.358z
	 M101.41,8.487c-0.257-0.526-0.61-0.931-1.058-1.216s-0.96-0.428-1.536-0.428c-0.576,0-1.088,0.142-1.536,0.428
	c-0.448,0.285-0.801,0.691-1.058,1.216c-0.257,0.526-0.385,1.149-0.385,1.871c0,0.722,0.129,1.346,0.385,1.871
	c0.257,0.526,0.61,0.931,1.058,1.216c0.448,0.285,0.96,0.428,1.536,0.428c0.575,0,1.087-0.143,1.536-0.428
	c0.448-0.285,0.801-0.69,1.058-1.216c0.257-0.526,0.385-1.15,0.385-1.871C101.795,9.636,101.667,9.013,101.41,8.487z
	 M100.713,11.858c-0.194,0.408-0.457,0.716-0.787,0.926c-0.331,0.209-0.701,0.314-1.109,0.314c-0.409,0-0.779-0.105-1.109-0.314
	c-0.331-0.21-0.593-0.518-0.788-0.926c-0.194-0.407-0.292-0.908-0.292-1.5c0-0.593,0.097-1.092,0.292-1.5
	c0.194-0.407,0.457-0.716,0.788-0.925c0.33-0.21,0.7-0.314,1.109-0.314c0.408,0,0.778,0.105,1.109,0.314
	c0.33,0.209,0.593,0.518,0.787,0.925c0.194,0.408,0.292,0.908,0.292,1.5C101.004,10.95,100.907,11.45,100.713,11.858z
	 M76.531,17.883c-0.011-0.345-0.116-0.653-0.315-0.925c-0.199-0.271-0.468-0.486-0.806-0.643c-0.338-0.157-0.725-0.236-1.16-0.236
	c-0.431,0-0.82,0.08-1.168,0.239c-0.348,0.159-0.625,0.382-0.83,0.668c-0.206,0.286-0.308,0.621-0.308,1.004
	c0,0.461,0.154,0.835,0.461,1.119c0.307,0.285,0.725,0.505,1.252,0.658l0.831,0.241c0.237,0.067,0.458,0.145,0.662,0.234
	c0.204,0.089,0.369,0.205,0.494,0.348c0.125,0.142,0.188,0.327,0.188,0.554c0,0.25-0.073,0.467-0.217,0.653
	c-0.145,0.186-0.342,0.331-0.59,0.434c-0.248,0.104-0.529,0.155-0.84,0.155c-0.268,0-0.518-0.04-0.75-0.122
	s-0.423-0.206-0.573-0.374c-0.151-0.168-0.237-0.381-0.259-0.64h-0.844c0.027,0.375,0.14,0.703,0.341,0.986
	c0.201,0.283,0.478,0.504,0.831,0.662c0.352,0.158,0.77,0.237,1.254,0.237c0.518,0,0.96-0.088,1.323-0.264
	c0.364-0.176,0.641-0.413,0.831-0.711s0.285-0.633,0.285-1.002c0-0.321-0.065-0.592-0.194-0.812c-0.13-0.22-0.294-0.402-0.493-0.543
	c-0.199-0.141-0.406-0.253-0.623-0.336c-0.216-0.082-0.412-0.147-0.588-0.194l-0.685-0.187c-0.125-0.033-0.263-0.078-0.412-0.132
	c-0.149-0.054-0.292-0.125-0.428-0.211c-0.136-0.086-0.248-0.194-0.335-0.324c-0.086-0.131-0.13-0.287-0.13-0.469
	c0-0.218,0.062-0.413,0.187-0.585c0.124-0.171,0.297-0.306,0.52-0.404s0.484-0.147,0.783-0.147c0.408,0,0.754,0.094,1.034,0.281
	c0.281,0.187,0.442,0.45,0.482,0.788H76.531z M77.55,23.016h0.764v-5.199h0.066l2.109,5.199h0.738l2.109-5.199h0.066v5.199h0.765
	v-6.843h-0.975l-2.294,5.68h-0.079l-2.293-5.68H77.55V23.016z M89.069,21.078H86.34l-0.679,1.938h-0.857l2.478-6.843h0.843
	l2.478,6.843h-0.857L89.069,21.078z M88.812,20.343l-1.081-3.087h-0.053l-1.081,3.087H88.812z M95.13,23.016l-1.425-2.68
	c-0.057,0.002-0.111,0.008-0.17,0.008h-1.476v2.673h-0.817v-6.843h2.28c0.527,0,0.96,0.091,1.298,0.272
	c0.339,0.182,0.589,0.43,0.752,0.747c0.162,0.316,0.244,0.676,0.244,1.079c0,0.403-0.081,0.761-0.244,1.073
	c-0.162,0.312-0.412,0.556-0.748,0.733c-0.084,0.044-0.174,0.083-0.27,0.116l1.525,2.822H95.13z M92.059,19.594h1.45
	c0.36,0,0.651-0.054,0.871-0.16c0.221-0.107,0.381-0.259,0.481-0.456c0.1-0.197,0.15-0.433,0.15-0.707
	c0-0.274-0.05-0.513-0.152-0.718c-0.101-0.205-0.263-0.364-0.484-0.476c-0.222-0.112-0.515-0.169-0.88-0.169h-1.437V19.594z
	 M98.509,16.908v6.108h0.817v-6.108h2.122v-0.735h-5.062v0.735H98.509z M77.117,26.634c-0.162-0.275-0.365-0.509-0.606-0.702
	c-0.242-0.192-0.513-0.339-0.812-0.439c-0.299-0.1-0.62-0.15-0.96-0.15c-0.576,0-1.088,0.142-1.536,0.428s-0.801,0.691-1.058,1.216
	c-0.257,0.526-0.385,1.149-0.385,1.871c0,0.722,0.129,1.346,0.385,1.871c0.257,0.526,0.61,0.931,1.058,1.216
	c0.448,0.285,0.96,0.428,1.536,0.428c0.34,0,0.661-0.051,0.96-0.151c0.3-0.1,0.571-0.246,0.812-0.439
	c0.242-0.192,0.444-0.427,0.606-0.703c0.163-0.276,0.275-0.59,0.336-0.939h-0.817c-0.048,0.236-0.132,0.445-0.252,0.626
	c-0.12,0.182-0.265,0.334-0.435,0.458c-0.17,0.123-0.359,0.216-0.566,0.279c-0.206,0.062-0.422,0.094-0.646,0.094
	c-0.409,0-0.779-0.105-1.109-0.314c-0.331-0.21-0.593-0.518-0.788-0.926c-0.194-0.407-0.292-0.908-0.292-1.5
	c0-0.593,0.097-1.092,0.292-1.5c0.194-0.407,0.457-0.716,0.788-0.925c0.33-0.21,0.7-0.314,1.109-0.314
	c0.224,0,0.439,0.031,0.646,0.094c0.207,0.062,0.395,0.155,0.566,0.279c0.17,0.124,0.315,0.276,0.435,0.456
	c0.12,0.181,0.204,0.39,0.252,0.628h0.817C77.392,27.222,77.28,26.908,77.117,26.634z M83.663,26.986
	c-0.257-0.526-0.61-0.931-1.058-1.216c-0.448-0.285-0.96-0.428-1.536-0.428c-0.576,0-1.088,0.142-1.536,0.428
	c-0.448,0.285-0.801,0.691-1.058,1.216c-0.257,0.526-0.385,1.149-0.385,1.871c0,0.722,0.129,1.346,0.385,1.871
	c0.257,0.526,0.61,0.931,1.058,1.216c0.448,0.285,0.96,0.428,1.536,0.428c0.575,0,1.087-0.143,1.536-0.428
	c0.448-0.285,0.801-0.69,1.058-1.216c0.257-0.526,0.385-1.15,0.385-1.871C84.049,28.135,83.92,27.512,83.663,26.986z M82.966,30.357
	c-0.194,0.408-0.457,0.716-0.787,0.926c-0.331,0.209-0.701,0.314-1.109,0.314c-0.409,0-0.779-0.105-1.109-0.314
	c-0.331-0.21-0.593-0.518-0.788-0.926c-0.194-0.407-0.292-0.908-0.292-1.5c0-0.593,0.097-1.092,0.292-1.5
	c0.194-0.407,0.457-0.716,0.788-0.925c0.33-0.21,0.7-0.314,1.109-0.314c0.408,0,0.778,0.105,1.109,0.314
	c0.33,0.209,0.593,0.518,0.787,0.925c0.194,0.408,0.292,0.908,0.292,1.5C83.258,29.449,83.161,29.95,82.966,30.357z M89.55,25.436
	v5.386h-0.066l-3.691-5.386h-0.791v6.843h0.817v-5.373h0.066l3.678,5.373h0.791v-6.843H89.55z M96.119,25.436v5.386h-0.066
	l-3.691-5.386h-0.791v6.843h0.817v-5.373h0.066l3.678,5.373h0.791v-6.843H96.119z M102.266,32.278v-0.735h-3.309v-2.326h3.045
	v-0.735h-3.045v-2.312h3.256v-0.735H98.14v6.843H102.266z M108.366,26.634c-0.162-0.275-0.365-0.509-0.606-0.702
	c-0.242-0.192-0.513-0.339-0.812-0.439c-0.299-0.1-0.62-0.15-0.96-0.15c-0.576,0-1.088,0.142-1.536,0.428s-0.801,0.691-1.058,1.216
	c-0.257,0.526-0.385,1.149-0.385,1.871c0,0.722,0.129,1.346,0.385,1.871c0.257,0.526,0.61,0.931,1.058,1.216
	c0.448,0.285,0.96,0.428,1.536,0.428c0.34,0,0.661-0.051,0.96-0.151c0.3-0.1,0.571-0.246,0.812-0.439
	c0.242-0.192,0.444-0.427,0.606-0.703c0.163-0.276,0.275-0.59,0.336-0.939h-0.817c-0.048,0.236-0.132,0.445-0.252,0.626
	c-0.12,0.182-0.265,0.334-0.435,0.458c-0.17,0.123-0.359,0.216-0.566,0.279c-0.206,0.062-0.422,0.094-0.646,0.094
	c-0.409,0-0.779-0.105-1.109-0.314c-0.331-0.21-0.593-0.518-0.788-0.926c-0.194-0.407-0.292-0.908-0.292-1.5
	c0-0.593,0.097-1.092,0.292-1.5c0.194-0.407,0.457-0.716,0.788-0.925c0.33-0.21,0.7-0.314,1.109-0.314
	c0.224,0,0.439,0.031,0.646,0.094c0.207,0.062,0.395,0.155,0.566,0.279c0.17,0.124,0.315,0.276,0.435,0.456
	c0.12,0.181,0.204,0.39,0.252,0.628h0.817C108.641,27.222,108.529,26.908,108.366,26.634z M111.356,26.171v6.108h0.817v-6.108h2.122
	v-0.735h-5.062v0.735H111.356z M119.27,32.278v-0.735h-3.309v-2.326h3.045v-0.735h-3.045v-2.312h3.256v-0.735h-4.073v6.843H119.27z
	 M124.105,31.866c0.479-0.275,0.843-0.669,1.094-1.183c0.251-0.513,0.376-1.127,0.376-1.839c0-0.708-0.124-1.317-0.373-1.826
	c-0.248-0.509-0.605-0.9-1.071-1.173c-0.466-0.272-1.026-0.409-1.68-0.409h-2.175v6.843h2.083
	C123.044,32.278,123.626,32.141,124.105,31.866z M121.093,26.171h1.305c0.527,0,0.968,0.108,1.322,0.323
	c0.354,0.215,0.62,0.522,0.798,0.922c0.178,0.4,0.267,0.876,0.267,1.429c0,0.557-0.09,1.037-0.27,1.44
	c-0.18,0.403-0.454,0.714-0.821,0.932c-0.367,0.218-0.829,0.327-1.387,0.327h-1.213V26.171z M76.531,36.382
	c-0.011-0.345-0.116-0.653-0.315-0.925c-0.199-0.271-0.468-0.486-0.806-0.643c-0.338-0.157-0.725-0.236-1.16-0.236
	c-0.431,0-0.82,0.08-1.168,0.239c-0.348,0.159-0.625,0.382-0.83,0.668c-0.206,0.286-0.308,0.621-0.308,1.004
	c0,0.461,0.154,0.835,0.461,1.119c0.307,0.285,0.725,0.505,1.252,0.658l0.831,0.241c0.237,0.067,0.458,0.145,0.662,0.234
	c0.204,0.089,0.369,0.205,0.494,0.348c0.125,0.142,0.188,0.327,0.188,0.554c0,0.25-0.073,0.467-0.217,0.653
	c-0.145,0.186-0.342,0.331-0.59,0.434c-0.248,0.104-0.529,0.155-0.84,0.155c-0.268,0-0.518-0.04-0.75-0.122
	c-0.232-0.081-0.423-0.206-0.573-0.374c-0.151-0.168-0.237-0.381-0.259-0.64h-0.844c0.027,0.375,0.14,0.703,0.341,0.986
	c0.201,0.283,0.478,0.504,0.831,0.662c0.352,0.158,0.77,0.237,1.254,0.237c0.518,0,0.96-0.088,1.323-0.264
	c0.364-0.176,0.641-0.413,0.831-0.711c0.19-0.298,0.285-0.633,0.285-1.002c0-0.321-0.065-0.592-0.194-0.812
	c-0.13-0.22-0.294-0.402-0.493-0.543s-0.406-0.253-0.623-0.336c-0.216-0.082-0.412-0.147-0.588-0.194l-0.685-0.187
	c-0.125-0.033-0.263-0.078-0.412-0.132c-0.149-0.054-0.292-0.125-0.428-0.211c-0.136-0.086-0.248-0.194-0.335-0.324
	c-0.086-0.131-0.13-0.287-0.13-0.469c0-0.218,0.062-0.413,0.187-0.585c0.124-0.171,0.297-0.306,0.52-0.404
	c0.223-0.098,0.484-0.147,0.783-0.147c0.408,0,0.754,0.094,1.034,0.281c0.281,0.187,0.442,0.45,0.482,0.788H76.531z M82.124,36.837
	c0,0.403-0.081,0.77-0.243,1.099c-0.162,0.33-0.41,0.592-0.746,0.787c-0.336,0.195-0.767,0.293-1.292,0.293h-1.476v2.499H77.55
	v-6.843h2.28c0.53,0,0.963,0.096,1.3,0.289c0.337,0.193,0.587,0.453,0.75,0.781C82.043,36.069,82.124,36.434,82.124,36.837z
	 M81.32,36.837c0-0.274-0.05-0.519-0.15-0.735c-0.1-0.216-0.261-0.386-0.483-0.51c-0.222-0.124-0.516-0.186-0.883-0.186h-1.437
	v2.873h1.45c0.362,0,0.653-0.063,0.873-0.19c0.219-0.127,0.379-0.299,0.479-0.516C81.27,37.357,81.32,37.111,81.32,36.837z
	 M86.024,39.577h-2.729l-0.679,1.938h-0.857l2.479-6.843h0.843l2.478,6.843h-0.857L86.024,39.577z M85.767,38.842l-1.081-3.087
	h-0.053l-1.081,3.087H85.767z M92.975,35.87c-0.162-0.275-0.365-0.509-0.606-0.702c-0.242-0.192-0.512-0.339-0.812-0.439
	c-0.299-0.1-0.62-0.15-0.96-0.15c-0.576,0-1.088,0.142-1.536,0.428c-0.448,0.285-0.801,0.691-1.058,1.216
	c-0.257,0.526-0.385,1.149-0.385,1.871c0,0.722,0.129,1.346,0.385,1.871c0.257,0.526,0.61,0.931,1.058,1.216
	c0.448,0.285,0.96,0.428,1.536,0.428c0.34,0,0.661-0.051,0.96-0.151c0.3-0.1,0.571-0.246,0.812-0.439
	c0.242-0.192,0.444-0.427,0.606-0.703c0.163-0.276,0.275-0.59,0.336-0.939h-0.817c-0.048,0.236-0.132,0.445-0.252,0.626
	c-0.12,0.182-0.265,0.334-0.435,0.458c-0.17,0.123-0.359,0.216-0.566,0.279c-0.206,0.062-0.422,0.094-0.646,0.094
	c-0.409,0-0.779-0.105-1.109-0.314c-0.331-0.21-0.593-0.518-0.788-0.926c-0.194-0.407-0.292-0.908-0.292-1.5
	c0-0.593,0.097-1.092,0.292-1.5c0.194-0.407,0.457-0.716,0.788-0.925c0.33-0.21,0.7-0.314,1.109-0.314
	c0.224,0,0.439,0.031,0.646,0.094c0.207,0.062,0.395,0.155,0.566,0.279c0.17,0.124,0.315,0.276,0.435,0.456
	c0.12,0.181,0.204,0.39,0.252,0.628h0.817C93.25,36.458,93.138,36.145,92.975,35.87z M98.337,41.515V40.78h-3.309v-2.326h3.045
	v-0.735h-3.045v-2.312h3.256v-0.735h-4.073v6.843H98.337z M103.826,36.382c-0.011-0.345-0.116-0.653-0.315-0.925
	c-0.199-0.271-0.468-0.486-0.806-0.643c-0.338-0.157-0.725-0.236-1.16-0.236c-0.431,0-0.82,0.08-1.168,0.239
	c-0.348,0.159-0.625,0.382-0.83,0.668c-0.206,0.286-0.308,0.621-0.308,1.004c0,0.461,0.154,0.835,0.461,1.119
	c0.307,0.285,0.725,0.505,1.252,0.658l0.831,0.241c0.237,0.067,0.458,0.145,0.662,0.234c0.204,0.089,0.369,0.205,0.494,0.348
	c0.125,0.142,0.188,0.327,0.188,0.554c0,0.25-0.073,0.467-0.217,0.653c-0.145,0.186-0.342,0.331-0.59,0.434
	c-0.248,0.104-0.529,0.155-0.84,0.155c-0.268,0-0.518-0.04-0.75-0.122c-0.232-0.081-0.423-0.206-0.573-0.374
	c-0.151-0.168-0.237-0.381-0.259-0.64h-0.844c0.027,0.375,0.14,0.703,0.341,0.986c0.201,0.283,0.478,0.504,0.831,0.662
	c0.352,0.158,0.77,0.237,1.254,0.237c0.518,0,0.96-0.088,1.323-0.264c0.364-0.176,0.641-0.413,0.831-0.711
	c0.19-0.298,0.285-0.633,0.285-1.002c0-0.321-0.065-0.592-0.194-0.812c-0.13-0.22-0.294-0.402-0.493-0.543s-0.406-0.253-0.623-0.336
	c-0.216-0.082-0.412-0.147-0.588-0.194l-0.685-0.187c-0.125-0.033-0.263-0.078-0.412-0.132c-0.149-0.054-0.292-0.125-0.428-0.211
	c-0.136-0.086-0.248-0.194-0.335-0.324c-0.086-0.131-0.13-0.287-0.13-0.469c0-0.218,0.062-0.413,0.187-0.585
	c0.124-0.171,0.297-0.306,0.52-0.404c0.223-0.098,0.484-0.147,0.783-0.147c0.408,0,0.754,0.094,1.034,0.281
	c0.281,0.187,0.442,0.45,0.482,0.788H103.826z M73.165,45.166v4.125h0.405v-4.125h1.404v-0.369h-3.214v0.369H73.165z M77.737,47.723
	h-2.472c0.005,0.247,0.047,0.466,0.133,0.653c0.092,0.199,0.222,0.354,0.391,0.464c0.169,0.11,0.369,0.164,0.6,0.164
	c0.157,0,0.295-0.024,0.415-0.074c0.119-0.05,0.219-0.117,0.301-0.201c0.081-0.084,0.143-0.177,0.185-0.278l0.366,0.121
	c-0.05,0.142-0.133,0.273-0.248,0.393c-0.115,0.12-0.258,0.216-0.429,0.289s-0.368,0.109-0.589,0.109
	c-0.311,0-0.579-0.074-0.805-0.221c-0.227-0.147-0.402-0.351-0.525-0.612c-0.123-0.261-0.185-0.562-0.185-0.903
	c0-0.339,0.062-0.641,0.185-0.905c0.124-0.264,0.295-0.471,0.513-0.621c0.218-0.15,0.471-0.225,0.758-0.225
	c0.181,0,0.355,0.033,0.522,0.1c0.168,0.066,0.318,0.168,0.451,0.305c0.134,0.137,0.24,0.309,0.318,0.516
	c0.078,0.207,0.117,0.452,0.117,0.734V47.723z M77.342,47.378c0-0.217-0.043-0.412-0.129-0.585
	c-0.086-0.174-0.205-0.311-0.357-0.412c-0.153-0.101-0.329-0.151-0.527-0.151c-0.211,0-0.396,0.057-0.556,0.171
	c-0.16,0.114-0.285,0.265-0.376,0.452c-0.077,0.161-0.115,0.338-0.127,0.525H77.342z M80.147,46.084
	c-0.183-0.139-0.426-0.209-0.73-0.209c-0.224,0-0.423,0.04-0.597,0.12c-0.175,0.081-0.312,0.191-0.412,0.333
	c-0.1,0.141-0.149,0.305-0.149,0.49c0,0.225,0.069,0.414,0.208,0.566c0.138,0.152,0.352,0.263,0.64,0.334l0.543,0.131
	c0.182,0.044,0.318,0.112,0.407,0.205c0.09,0.093,0.135,0.207,0.135,0.344c0,0.175-0.077,0.321-0.23,0.438s-0.358,0.175-0.612,0.175
	c-0.229,0-0.412-0.051-0.551-0.154c-0.139-0.102-0.233-0.254-0.28-0.454l-0.371,0.092c0.059,0.281,0.194,0.495,0.405,0.644
	c0.211,0.148,0.478,0.223,0.803,0.223c0.244,0,0.458-0.042,0.644-0.126c0.185-0.084,0.33-0.2,0.434-0.348
	c0.104-0.148,0.156-0.317,0.156-0.507c0-0.226-0.069-0.413-0.209-0.562c-0.139-0.149-0.348-0.258-0.626-0.327l-0.502-0.125
	c-0.206-0.053-0.359-0.124-0.457-0.214s-0.149-0.207-0.149-0.352c0-0.171,0.073-0.311,0.217-0.419
	c0.145-0.108,0.33-0.162,0.554-0.162c0.15,0,0.276,0.024,0.378,0.072c0.102,0.048,0.185,0.113,0.248,0.195
	c0.064,0.082,0.113,0.173,0.147,0.274l0.354-0.101C80.462,46.416,80.33,46.224,80.147,46.084z M82.492,48.93
	c-0.027,0.007-0.059,0.014-0.095,0.021c-0.036,0.006-0.08,0.01-0.13,0.01c-0.087,0-0.168-0.016-0.245-0.049
	c-0.077-0.033-0.139-0.089-0.186-0.169c-0.048-0.079-0.072-0.19-0.072-0.33v-2.151h0.703v-0.34h-0.703v-0.808h-0.388v0.808h-0.495
	v0.34h0.495v2.243c0,0.184,0.042,0.339,0.126,0.463c0.084,0.124,0.191,0.218,0.322,0.281c0.13,0.063,0.267,0.094,0.408,0.094
	c0.081,0,0.149-0.006,0.204-0.018c0.055-0.012,0.101-0.026,0.139-0.041L82.492,48.93z M86.167,49.292
	c0.318,0,0.578-0.051,0.784-0.152c0.206-0.102,0.359-0.242,0.458-0.42c0.099-0.178,0.149-0.38,0.149-0.607
	c0-0.228-0.043-0.424-0.13-0.588c-0.087-0.164-0.197-0.292-0.331-0.383c-0.135-0.091-0.274-0.142-0.417-0.152v-0.035
	c0.132-0.037,0.251-0.096,0.358-0.178s0.191-0.19,0.254-0.323c0.062-0.133,0.093-0.294,0.093-0.481c0-0.225-0.049-0.426-0.145-0.603
	c-0.097-0.177-0.242-0.317-0.435-0.419s-0.434-0.154-0.722-0.154h-1.495v4.495H86.167z M84.994,45.166h1.091
	c0.304,0,0.531,0.075,0.684,0.225c0.153,0.15,0.23,0.344,0.23,0.582c0,0.166-0.037,0.313-0.111,0.442
	c-0.073,0.128-0.176,0.23-0.307,0.303c-0.132,0.073-0.285,0.11-0.459,0.11h-1.128V45.166z M84.994,47.192h1.191
	c0.199,0,0.373,0.041,0.52,0.123s0.263,0.193,0.345,0.333c0.081,0.14,0.122,0.295,0.122,0.466c0,0.233-0.082,0.426-0.246,0.579
	c-0.164,0.154-0.417,0.231-0.758,0.231h-1.174V47.192z M90.873,47.723h-2.472c0.005,0.247,0.047,0.466,0.133,0.653
	c0.091,0.199,0.222,0.354,0.391,0.464c0.169,0.11,0.369,0.164,0.599,0.164c0.158,0,0.296-0.024,0.415-0.074
	c0.119-0.05,0.22-0.117,0.301-0.201c0.082-0.084,0.144-0.177,0.185-0.278l0.367,0.121c-0.051,0.142-0.134,0.273-0.248,0.393
	c-0.115,0.12-0.258,0.216-0.429,0.289c-0.172,0.072-0.368,0.109-0.59,0.109c-0.311,0-0.578-0.074-0.805-0.221
	s-0.402-0.351-0.524-0.612c-0.124-0.261-0.186-0.562-0.186-0.903c0-0.339,0.062-0.641,0.186-0.905
	c0.123-0.264,0.294-0.471,0.512-0.621c0.219-0.15,0.471-0.225,0.759-0.225c0.18,0,0.354,0.033,0.521,0.1
	c0.167,0.066,0.318,0.168,0.452,0.305c0.133,0.137,0.239,0.309,0.317,0.516c0.078,0.207,0.117,0.452,0.117,0.734V47.723z
	 M90.48,47.378c0-0.217-0.043-0.412-0.129-0.585c-0.086-0.174-0.205-0.311-0.358-0.412c-0.152-0.101-0.328-0.151-0.526-0.151
	c-0.211,0-0.397,0.057-0.556,0.171c-0.161,0.114-0.286,0.265-0.376,0.452c-0.078,0.161-0.116,0.338-0.128,0.525H90.48z
	 M93.148,49.252c0.135-0.073,0.243-0.163,0.326-0.271c0.082-0.107,0.146-0.212,0.19-0.315h0.046v0.625h0.377v-4.495h-0.388v1.767
	h-0.035c-0.044-0.101-0.107-0.205-0.188-0.311c-0.081-0.107-0.189-0.197-0.323-0.269c-0.134-0.072-0.303-0.108-0.504-0.108
	c-0.274,0-0.514,0.073-0.72,0.218c-0.207,0.145-0.368,0.349-0.481,0.61c-0.115,0.261-0.173,0.565-0.173,0.912
	c0,0.348,0.058,0.653,0.173,0.915c0.114,0.262,0.274,0.466,0.479,0.612c0.205,0.146,0.444,0.22,0.716,0.22
	C92.844,49.362,93.013,49.325,93.148,49.252z M92.128,48.819c-0.152-0.123-0.268-0.291-0.348-0.501
	c-0.079-0.211-0.119-0.447-0.119-0.709c0-0.259,0.039-0.492,0.118-0.7s0.195-0.373,0.347-0.495c0.152-0.122,0.34-0.183,0.561-0.183
	c0.217,0,0.401,0.059,0.552,0.176c0.151,0.118,0.267,0.28,0.346,0.487c0.08,0.207,0.12,0.445,0.12,0.714
	c0,0.272-0.04,0.513-0.121,0.723c-0.08,0.21-0.196,0.375-0.347,0.493c-0.152,0.119-0.336,0.179-0.55,0.179
	C92.466,49.004,92.28,48.943,92.128,48.819z"/>
</svg>
